<svg xmlns="http://www.w3.org/2000/svg" xmlns:xlink="http://www.w3.org/1999/xlink" viewBox="0 0 1366 768"><defs><linearGradient id="linear-gradient" x1="504.19" y1="541.93" x2="593.5" y2="541.93" gradientUnits="userSpaceOnUse"><stop offset="0" stop-color="#00a08f"/><stop offset="1" stop-color="#f66747"/></linearGradient><linearGradient id="linear-gradient-2" x1="503.69" y1="541.93" x2="594.31" y2="541.93" xlink:href="#linear-gradient"/><linearGradient id="linear-gradient-3" x1="513.05" y1="623.35" x2="731.17" y2="623.35" xlink:href="#linear-gradient"/><linearGradient id="linear-gradient-4" x1="512.38" y1="623.28" x2="732.43" y2="623.28" xlink:href="#linear-gradient"/><linearGradient id="linear-gradient-5" x1="440.9" y1="345.38" x2="801.51" y2="345.38" xlink:href="#linear-gradient"/><linearGradient id="linear-gradient-6" x1="440.4" y1="345.51" x2="802.09" y2="345.51" xlink:href="#linear-gradient"/><linearGradient id="linear-gradient-7" x1="621.99" y1="306.18" x2="623.1" y2="306.18" xlink:href="#linear-gradient"/><linearGradient id="linear-gradient-8" x1="621.49" y1="306.13" x2="623.57" y2="306.13" xlink:href="#linear-gradient"/><linearGradient id="linear-gradient-9" x1="507.62" y1="422.03" x2="537.82" y2="422.03" xlink:href="#linear-gradient"/><linearGradient id="linear-gradient-10" x1="507.12" y1="422.46" x2="538.68" y2="422.46" xlink:href="#linear-gradient"/><linearGradient id="linear-gradient-11" x1="629.81" y1="298.46" x2="1010.64" y2="298.46" gradientUnits="userSpaceOnUse"><stop offset="0" stop-color="#fff"/><stop offset="1" stop-color="#efc458"/></linearGradient><linearGradient id="linear-gradient-12" x1="629.26" y1="298.72" x2="1011.14" y2="298.72" xlink:href="#linear-gradient-11"/><linearGradient id="linear-gradient-13" x1="640.49" y1="217.06" x2="720.6" y2="217.06" xlink:href="#linear-gradient-11"/><linearGradient id="linear-gradient-14" x1="639.86" y1="216.94" x2="721.1" y2="216.94" xlink:href="#linear-gradient-11"/><linearGradient id="linear-gradient-15" x1="629.18" y1="395.07" x2="865.46" y2="395.07" xlink:href="#linear-gradient-11"/><linearGradient id="linear-gradient-16" x1="628.68" y1="395.07" x2="865.99" y2="395.07" xlink:href="#linear-gradient-11"/><linearGradient id="linear-gradient-17" x1="500.2" y1="450.15" x2="866.03" y2="450.15" gradientUnits="userSpaceOnUse"><stop offset="0" stop-color="#1c4755"/><stop offset="1" stop-color="#00a08f"/></linearGradient><linearGradient id="linear-gradient-18" x1="499.7" y1="450.15" x2="866.53" y2="450.15" xlink:href="#linear-gradient-17"/><linearGradient id="linear-gradient-19" x1="505.1" y1="534.89" x2="593.5" y2="534.89" xlink:href="#linear-gradient-17"/><linearGradient id="linear-gradient-20" x1="504.58" y1="534.96" x2="594.31" y2="534.96" xlink:href="#linear-gradient-17"/><linearGradient id="linear-gradient-21" x1="622.06" y1="306.26" x2="709.75" y2="306.26" xlink:href="#linear-gradient-17"/><linearGradient id="linear-gradient-22" x1="621.53" y1="306.25" x2="710.54" y2="306.25" xlink:href="#linear-gradient-17"/><linearGradient id="linear-gradient-23" x1="621.99" y1="291.79" x2="709.75" y2="291.79" xlink:href="#linear-gradient-11"/><linearGradient id="linear-gradient-24" x1="621.49" y1="291.63" x2="710.54" y2="291.63" xlink:href="#linear-gradient-11"/><linearGradient id="linear-gradient-25" x1="636.57" y1="274.97" x2="685.36" y2="274.97" xlink:href="#linear-gradient-11"/><linearGradient id="linear-gradient-26" x1="635.93" y1="274.97" x2="685.99" y2="274.97" xlink:href="#linear-gradient-11"/><linearGradient id="linear-gradient-27" x1="610.69" y1="204.03" x2="720.6" y2="204.03" xlink:href="#linear-gradient-11"/><linearGradient id="linear-gradient-28" x1="610.19" y1="204.03" x2="721.1" y2="204.03" xlink:href="#linear-gradient-11"/><linearGradient id="linear-gradient-29" x1="504.19" y1="541.93" x2="593.5" y2="541.93" xlink:href="#linear-gradient-11"/><linearGradient id="linear-gradient-30" x1="503.69" y1="541.93" x2="594.31" y2="541.93" xlink:href="#linear-gradient-11"/><linearGradient id="linear-gradient-31" x1="535.42" y1="518.6" x2="865.85" y2="518.6" xlink:href="#linear-gradient-11"/><linearGradient id="linear-gradient-32" x1="534.92" y1="518.6" x2="866.35" y2="518.6" xlink:href="#linear-gradient-11"/><linearGradient id="linear-gradient-33" x1="649.77" y1="154.63" x2="721.6" y2="154.63" xlink:href="#linear-gradient-17"/><linearGradient id="linear-gradient-34" x1="649.27" y1="154.71" x2="722.1" y2="154.71" xlink:href="#linear-gradient-17"/><linearGradient id="linear-gradient-35" x1="607.78" y1="145.76" x2="653.79" y2="145.76" xlink:href="#linear-gradient-17"/><linearGradient id="linear-gradient-36" x1="607.28" y1="145.76" x2="654.38" y2="145.76" xlink:href="#linear-gradient-17"/><linearGradient id="linear-gradient-37" x1="834.5" y1="225" x2="901.5" y2="225" xlink:href="#linear-gradient-17"/><linearGradient id="linear-gradient-38" x1="834" y1="225" x2="902" y2="225" xlink:href="#linear-gradient-17"/></defs><title>c</title><g style="isolation:isolate"><g id="Layer_12" data-name="Layer 12"><path d="M593.5,506.78c-8.29-.75-15.58-3.53-23.63-5.68a202.73,202.73,0,0,1-28.11-9.76c-3.37-1.46-9-4.5-14.77-6.8-6.17-2.46-12.54-4.07-16.58-2a6,6,0,0,0-1.71,1.31c-2.24,2.43-3.21,6.89-3.6,11.79,0,.57-.08,1.14-.11,1.72s-.05,1-.06,1.47,0,.76,0,1.14,0,.72,0,1.08v.23c0,1.15,0,2.29,0,3.4,0,.48,0,.95,0,1.41l0,1.21c0,.67,0,1.31,0,1.94h0a.75.75,0,0,0,0,.15c0,.42,0,.83,0,1.23,0,1.6,0,3,0,4.15a778.93,778.93,0,0,0,.55,81.15c3.48,1.19,7,2.27,10.59,3.2,11.12,2.88,22.62,4.21,33.86,2.18a51.17,51.17,0,0,0,11.58-3.56,46.57,46.57,0,0,0,14.08-9.53,36,36,0,0,0,8.57-13.31c2.65-7.4,2.69-15.43,2.93-23.28C587.64,535.49,585.17,521.61,593.5,506.78Z" stroke-miterlimit="10" fill="url(#linear-gradient)" stroke="url(#linear-gradient-2)"/><path d="M731.17,605.88C703,638.47,666.45,658.5,621.5,658.5c-44.3,0-80.45-19.46-108.45-51.23,1.93-2.21,2.65-5.19,3.08-8.16,11.12,2.88,22.62,4.21,33.86,2.18a51.17,51.17,0,0,0,11.58-3.56,46.57,46.57,0,0,0,14.08-9.53A95.67,95.67,0,0,0,593,596l.33.09.31.08.11,0,.58.15.24.06.48.12h0l1.79.42c.8.19,1.74.39,2.8.62l2.38.5.12,0c1.39.28,2.94.59,4.64.91l2.18.41.84.15,1.75.31.9.16,1.33.22.45.08,3.35.55q3.46.55,7.4,1.12a663.57,663.57,0,0,0,66.17,6A210,210,0,0,0,731.17,605.88Z" stroke-miterlimit="10" fill="url(#linear-gradient-3)" stroke="url(#linear-gradient-4)"/><path d="M801.51,346.47a127,127,0,0,0-21.14-21.8,159.74,159.74,0,0,0-44.45-25.4c-7.95-3-16.94-6.29-25.45-7.07a27,27,0,0,0-4.58,0l-.53,0-.29,0-1.38.16h0l-1.42.22c-.52-.23-1-.48-1.52-.75l-.73-.43c-.23-.14-.46-.28-.68-.43q-.72-.48-1.41-1c-.22-.17-.44-.35-.65-.54a20.52,20.52,0,0,1-1.89-1.84c-.16-.19-.33-.37-.48-.56-.34-.4-.66-.82-1-1.25l-.09-.13c-.16-.22-.31-.45-.45-.68q-.45-.72-.84-1.47c-3.2-6.25-3.28-14.41-7.17-19.84,12.47-14.81,21.74-32.72,28.17-51.07a140.54,140.54,0,0,0,5.06-17.8c2.85-13.63,3.12-27.63-2.21-40.29-.42-1-.87-2-1.36-2.93-.12-.26-.26-.52-.39-.77s-.4-.77-.61-1.14-.54-.95-.82-1.42-.48-.79-.73-1.18a54.77,54.77,0,0,0-3.26-4.61c-.53-.67-1.07-1.33-1.63-2-.23-.28-.47-.56-.73-.83s-.64-.72-1-1.07-.57-.61-.87-.91a.12.12,0,0,0,0-.05c-.28-.3-.57-.59-.87-.88-1-1-2.11-2-3.21-3-.49-.42-1-.84-1.49-1.24,0,0,0,0-.07-.06-.54-.44-1.08-.87-1.63-1.28s-.94-.72-1.42-1.06l-.43-.31c-.55-.39-1.11-.78-1.67-1.15a59.77,59.77,0,0,0-27.74-10.11,43.58,43.58,0,0,0-12.44.66q-.43.08-.87.18c-.37.08-.75.17-1.12.27v1a14.14,14.14,0,0,0-3.12,6.69,11.12,11.12,0,0,0,.7,5.77c-.8,2.57-1.56,5.16-2.29,7.75h0q-2.55,3.69-4.72,7.57a80.1,80.1,0,0,0-5.84,13.05,59,59,0,0,1-18,11.71,13.06,13.06,0,0,1-5.94,1.17c-3.23,19.3-2.29,39.79.12,54.88,2.79,17.53,9.27,34.74,19.84,48.91,1.22,1.65,2.51,3.26,3.85,4.82-.15.18-.29.37-.43.55l-.34.44-.61.78c-.58.73-1.24,1.54-2,2.42l-.89,1.11-.92,1.17-.94,1.22c-.48.63-1,1.27-1.43,1.92-.73,1-1.45,2-2.13,3.1-.22.32-.42.64-.62,1s-.57.92-.83,1.38c-.41.7-.79,1.41-1.15,2.11-.23.46-.45.92-.65,1.38s-.41.94-.58,1.4a15.18,15.18,0,0,0-1.11,5.24,8.77,8.77,0,0,0,.07,1.15l-1.65.94-1.39.82,0,0-1.84,1.14c-.88.55-1.74,1.1-2.61,1.67-.62.4-1.24.81-1.85,1.24a2.2,2.2,0,0,0-.32.21c-.53.35-1.06.71-1.58,1.08-3.68,2.54-7.28,5.19-10.87,7.8l-3.07,2.23c-20.71,14.9-35.45,29.22-48,51.25-3.58,6.3-7.34,12.51-11,18.74q-2.62-.11-5.28-.33c-7.57-.63-13,.42-16.8,3.23-4.75,3.5-7,9.73-7.88,18.86a53.27,53.27,0,0,0,5.82,29.77c-.17.6-.33,1.21-.48,1.82s-.37,1.49-.54,2.24c-.22,1-.45,1.91-.69,2.83l-.24.9c-.24.9-.5,1.77-.76,2.63l-.21.68q-.18.6-.39,1.2c-.13.41-.27.82-.41,1.22-.49,1.43-1,2.82-1.56,4.2-1.9,4.73-4.1,9.28-6.63,14.7-1.75,3.75-2.37,8.42-.09,11.88a12,12,0,0,0,3.42,3.27c0,.57-.08,1.14-.11,1.72s-.05,1-.06,1.47,0,.76,0,1.14,0,.72,0,1.08v.23c0,1.14,0,2.28,0,3.4,0,.48,0,.95,0,1.41l0,1.21c0,.67,0,1.31,0,1.94h0a.75.75,0,0,0,0,.15c0,.42,0,.83,0,1.23,0,1.6,0,3,0,4.15a778.93,778.93,0,0,0,.55,81.15c3.48,1.19,7,2.27,10.59,3.2-.43,3-1.15,5.95-3.08,8.16a227,227,0,0,1-30.8-45.67C397.07,397.72,443.49,83.5,621.5,83.5,735,83.5,795.05,211.35,801.51,346.47Z" stroke-miterlimit="10" fill="url(#linear-gradient-5)" stroke="url(#linear-gradient-6)"/><path d="M623.1,303a15.3,15.3,0,0,0-1.1,5.26,10.55,10.55,0,0,0,.06,1.13,8.77,8.77,0,0,1-.07-1.15A15.18,15.18,0,0,1,623.1,303Z" stroke-miterlimit="10" fill="url(#linear-gradient-7)" stroke="url(#linear-gradient-8)"/><path d="M537.82,396.52c-9.75,16.41-19.16,32.94-24.14,51.53a53.27,53.27,0,0,1-5.82-29.77c.86-9.13,3.13-15.36,7.88-18.86,3.82-2.81,9.23-3.86,16.8-3.23Q535.19,396.42,537.82,396.52Z" stroke-miterlimit="10" fill="url(#linear-gradient-9)" stroke="url(#linear-gradient-10)"/><path d="M1010.64,349.44c0,38.2-29,74.54-72.85,76.6A76.3,76.3,0,0,0,876.56,462a78.41,78.41,0,0,1-10.51,13.45c-.19.2-.38.4-.59.6-1.38-9.57-5-19.36-8.35-26.7-8.61-19.07-18.22-37.67-28-56.17-9-17-16.8-32.6-27.62-46.7a127,127,0,0,0-21.14-21.8,159.74,159.74,0,0,0-44.45-25.4c-7.95-3-16.94-6.29-25.45-7.07a27.8,27.8,0,0,0-5.4.05c-1,.1-1.9.23-2.84.39a20.15,20.15,0,0,0,3,1.08c.24,1.82.61,3.92,1,5.9-4.71,5.33-11.64,8.81-18.39,11.52-16.86,6.79-35.41,11-53.24,7.47a29.9,29.9,0,0,1-4.78-1.29,74.17,74.17,0,0,1,10.68-30l.64.65a25.35,25.35,0,0,0,2,1.84h0a7.88,7.88,0,0,0,3.65,1.74h0c2.26.34,4.47-.66,6.5-1.71a105.62,105.62,0,0,0,32-26.15c12.47-14.81,21.74-32.72,28.17-51.07a140.54,140.54,0,0,0,5.06-17.8c2.85-13.63,3.12-27.63-2.21-40.29a52.8,52.8,0,0,0-7.17-12c24.09-23.1,62.71-30.16,95-8.92a76.32,76.32,0,0,0,70.67,6.9,76.6,76.6,0,0,1,29-5.79c47.53,0,87.25,45.75,73.33,96.6a76.29,76.29,0,0,0,15.27,69.35A75.08,75.08,0,0,1,1010.64,349.44Z" stroke-miterlimit="10" fill="url(#linear-gradient-11)" stroke="url(#linear-gradient-12)"/><path d="M641.13,288l-.64-.65a76.82,76.82,0,0,1,17.34-19.4,76.33,76.33,0,0,0,28.61-59.55c0-1.84-.07-3.68-.2-5.53S686,198.91,686,197a74.77,74.77,0,0,1,23.18-54.48,52.8,52.8,0,0,1,7.17,12c5.33,12.66,5.06,26.66,2.21,40.29a140.54,140.54,0,0,1-5.06,17.8c-6.43,18.35-15.7,36.26-28.17,51.07a105.62,105.62,0,0,1-32,26.15c-2,1-4.24,2-6.5,1.71h0a7.88,7.88,0,0,1-3.65-1.74h0A25.35,25.35,0,0,1,641.13,288Z" stroke-miterlimit="10" fill="url(#linear-gradient-13)" stroke="url(#linear-gradient-14)"/><path d="M865.46,476a74.15,74.15,0,0,1-19.55,14.1,76.3,76.3,0,0,1-34,7.9,78.41,78.41,0,0,1-18.06-2.11,75.13,75.13,0,0,1-53.51-47.25,76.25,76.25,0,0,0-53.12-47.12c-37-9.14-58.08-41.52-58.08-74.45a76.62,76.62,0,0,1,.63-9.79,29.9,29.9,0,0,0,4.78,1.29c17.83,3.51,36.38-.68,53.24-7.47,6.75-2.71,13.68-6.19,18.39-11.52-.39-2-.76-4.08-1-5.9a20.15,20.15,0,0,1-3-1.08c.94-.16,1.89-.29,2.84-.39a27.8,27.8,0,0,1,5.4-.05c8.51.78,17.5,4.1,25.45,7.07a159.74,159.74,0,0,1,44.45,25.4,127,127,0,0,1,21.14,21.8c10.82,14.1,18.67,29.72,27.62,46.7,9.76,18.5,19.37,37.1,28,56.17C860.42,456.68,864.08,466.47,865.46,476Z" stroke-miterlimit="10" fill="url(#linear-gradient-15)" stroke="url(#linear-gradient-16)"/></g><g id="Layer_5" data-name="Layer 5"><path d="M864.73,493.07a17.56,17.56,0,0,0-5.84-9.42l-.71-.53c-5.15-3.69-12-3.95-18.45-4q-29.82-.17-59.62,1,4.65,19.71,9.29,39.42L685,468.82c-16.07-7.81-32.2-15.64-48.77-22.27-8.45-3.39-17-6.46-25.75-9.05-20.78-6.17-42.88-9.77-64.58-7.86-8.31.74-15.28,5.17-6.36,11.49,8,5.64,22.56,7.38,32,8.83,6.72,1,13.72,1.64,19.72,4.84,5.08,2.7,9.05,7.05,12.93,11.29,9.86,10.76,19.92,21.38,30.26,31.72,31.07,31.09,64.64,59.63,102.59,81.58a278.74,278.74,0,0,0,34.07,16.9,244.84,244.84,0,0,1-40,9.59,210,210,0,0,1-40,2.14A663.57,663.57,0,0,1,625,602q-3.93-.57-7.4-1.12l-3.35-.55-.45-.08-1.33-.22-.9-.16-1.75-.31-.84-.15L606.8,599c-1.7-.32-3.25-.63-4.64-.91l-.12,0-2.38-.5c-1.06-.23-2-.43-2.8-.62l-1.79-.42h0l-.48-.12-.24-.06-.58-.15-.11,0-.31-.08L593,596a95.67,95.67,0,0,1-17.35-7.8,36,36,0,0,0,8.57-13.31c2.65-7.4,2.69-15.43,2.93-23.28.49-16.12-2-30,6.35-44.83-8.29-.75-15.58-3.53-23.63-5.68a202.73,202.73,0,0,1-28.11-9.76c-3.37-1.46-9-4.5-14.77-6.8-6.17-2.46-12.54-4.07-16.58-2a6,6,0,0,0-1.71,1.31c-2.24,2.43-3.21,6.89-3.6,11.79a12,12,0,0,1-3.42-3.27c-2.28-3.46-1.66-8.13.09-11.88,2.53-5.42,4.73-10,6.63-14.7.55-1.38,1.07-2.77,1.56-4.2.14-.4.28-.81.41-1.22s.27-.8.39-1.2l.21-.68c.26-.86.52-1.73.76-2.63l.24-.9c.24-.92.47-1.86.69-2.83.17-.75.35-1.5.54-2.24s.31-1.22.48-1.82c5-18.59,14.39-35.12,24.14-51.53,3.7-6.23,7.46-12.44,11-18.74,12.53-22,27.27-36.35,48-51.25l3.07-2.23c3.59-2.61,7.19-5.26,10.87-7.8.52-.37,1.05-.73,1.58-1.08a2.2,2.2,0,0,1,.32-.21c.61-.42,1.23-.83,1.85-1.24.87-.57,1.73-1.12,2.61-1.67l1.84-1.14,0,0,1.39-.82,1.65-.94c0,.14,0,.28.06.42a.93.93,0,0,0,0,.23c0,.13.05.25.08.37s.09.33.14.49a2.31,2.31,0,0,0,.1.28,5.49,5.49,0,0,0,.48,1.05,4.76,4.76,0,0,0,.32.51,3.46,3.46,0,0,0,.22.31,2.35,2.35,0,0,0,.19.25,9.26,9.26,0,0,0,.8.86,12.78,12.78,0,0,0,3.19,2.25l.4.2.65.29c.35.16.71.3,1.08.43s.78.28,1.18.4.93.28,1.4.4.67.16,1,.24l1,.21h0l.21,0c17.83,3.51,36.38-.68,53.24-7.47,1.15-.46,2.31-.95,3.46-1.46l1.12-.52q2.34-1.07,4.58-2.34c.26-.14.53-.29.79-.46.79-.46,1.57-.95,2.33-1.47.38-.25.75-.51,1.12-.78h0c.36-.27.72-.54,1.07-.82l1-.81.05-.05c.34-.29.68-.59,1-.9s.58-.54.86-.83l.18-.18c.28-.29.55-.59.82-.89s.57-.65.83-1c.14-.16.27-.34.4-.51a22.24,22.24,0,0,0,2.31-3.74c-.39,0-.77,0-1.15-.07s-.66-.06-1-.11c-.5-.07-1-.16-1.49-.27a6.23,6.23,0,0,1-.62-.15,18.5,18.5,0,0,1-1.79-.55L703,293l-.73-.32,1.42-.22h0l1.38-.16.29,0,.53,0a27,27,0,0,1,4.58,0c8.51.78,17.5,4.1,25.45,7.07a159.74,159.74,0,0,1,44.45,25.4,127,127,0,0,1,21.14,21.8c10.82,14.1,18.67,29.72,27.62,46.7,9.76,18.5,19.37,37.1,28,56.17,3.31,7.34,7,17.13,8.35,26.7a53,53,0,0,1,.55,6.21A33.88,33.88,0,0,1,864.73,493.07Z" stroke-miterlimit="10" fill="url(#linear-gradient-17)" stroke="url(#linear-gradient-18)"/><path d="M593.5,506.78c-8.33,14.83-5.86,28.71-6.35,44.83-.24,7.85-.28,15.88-2.93,23.28a36,36,0,0,1-8.57,13.31c-.61-.37-1.21-.75-1.79-1.14-10.91-7.29-5.43-15.16-2.83-26.41a80.45,80.45,0,0,0-.14-36.62c-4.29-1-8.58-2-12.88-3-13-3-11-4-20-8-4.18-1.86-8.25-3.82-12.26-5.87-6.14-3.13-12.15-6.47-18.21-10-.81-.48-1.64-1-2.43-1.5.39-4.9,1.36-9.36,3.6-11.79a6,6,0,0,1,1.71-1.31c4-2,10.41-.44,16.58,2,5.79,2.3,11.4,5.34,14.77,6.8a202.73,202.73,0,0,0,28.11,9.76C577.92,503.25,585.21,506,593.5,506.78Z" stroke-miterlimit="10" fill="url(#linear-gradient-19)" stroke="url(#linear-gradient-20)"/><path d="M702.23,292.64a19.52,19.52,0,0,0,7.52,1.75c-4.14,8.45-13.18,13.24-21.92,16.75-16.86,6.79-35.41,11-53.24,7.47a25.94,25.94,0,0,1-6.91-2.21,12.35,12.35,0,0,1-4-3.11,7.34,7.34,0,0,1-1.63-3.91c1.21-.67,2.43-1.32,3.67-1.93a62.27,62.27,0,0,1,19.56-6.23c13.49-1.8,27-3.41,40.53-5.06C691.46,295.47,696.79,293.58,702.23,292.64Z" stroke-miterlimit="10" fill="url(#linear-gradient-21)" stroke="url(#linear-gradient-22)"/></g><g id="Layer_11" data-name="Layer 11"><path d="M597.87,434.12c-.43,1.58-.92,3.11-1.44,4.57a67.23,67.23,0,0,1-7.52,15c-6.7,9.85-16.25,17.27-28.84,19-.52.08-1.06.15-1.6.2-15.6,1.58-31.58-6.08-40.91-18.67a45.91,45.91,0,0,1-3.88-6.2,53.27,53.27,0,0,1-5.82-29.77c.86-9.13,3.13-15.36,7.88-18.86,3.82-2.81,9.23-3.86,16.8-3.23q2.65.22,5.28.33c5.38.26,10.71.24,16,.07,8.9-.26,17.79-.93,26.85-1.35,2.58-.13,5.31-.21,7.57,1.05C601.6,403.78,601.57,420.75,597.87,434.12Z" fill="#f66747" stroke="#f66747" stroke-miterlimit="10"/></g><g id="Layer_4" data-name="Layer 4"><path d="M709.75,294.39a22.24,22.24,0,0,1-2.31,3.74l-.4.51c-.26.34-.54.67-.83,1s-.54.6-.82.89l-.18.18c-.28.28-.56.56-.86.83s-.66.61-1,.9l-.05.05-1,.81-1.07.82h0c-.37.27-.74.53-1.12.78-.76.52-1.54,1-2.33,1.47l-.79.46q-2.24,1.28-4.58,2.34l-1.12.52c-1.15.51-2.31,1-3.46,1.46-16.86,6.79-35.41,11-53.24,7.47l-.21,0h0l-1-.21c-.34-.08-.67-.15-1-.24s-.94-.25-1.4-.4-.79-.26-1.18-.4-.73-.27-1.08-.43-.71-.31-1.05-.49a12.78,12.78,0,0,1-3.19-2.25,9.26,9.26,0,0,1-.8-.86,5.34,5.34,0,0,1-.41-.56,3.94,3.94,0,0,1-.32-.51,5.49,5.49,0,0,1-.48-1.05c0-.09-.07-.19-.1-.28s-.1-.32-.14-.49-.06-.25-.08-.37a.93.93,0,0,1,0-.23c0-.14,0-.28-.06-.42a8.77,8.77,0,0,1-.07-1.15A15.18,15.18,0,0,1,623.1,303c.17-.46.37-.93.58-1.4s.42-.92.65-1.38c.36-.7.74-1.41,1.15-2.11.27-.46.54-.92.83-1.38s.4-.64.62-1c.68-1.05,1.4-2.09,2.13-3.1l1.43-1.92.94-1.22.92-1.17.89-1.11c.71-.88,1.37-1.69,2-2.42l.61-.78.34-.44c.14-.18.28-.37.43-.55q1.41,1.65,2.91,3.23c.32.34.64.68,1,1l0,0,.64.65a25.35,25.35,0,0,0,2,1.84h0a7.88,7.88,0,0,0,3.65,1.74h0c2.26.34,4.47-.66,6.5-1.71,1.23-.64,2.44-1.3,3.63-2a107,107,0,0,0,28.41-24.16c3.89,5.43,4,13.59,7.17,19.84q.39.75.84,1.47c.14.23.29.46.45.68l.09.13c.3.43.62.85,1,1.25.15.19.31.37.48.56a20.52,20.52,0,0,0,1.89,1.84c.21.19.43.37.65.54q.69.54,1.41,1l.68.43.73.43c.5.27,1,.52,1.52.75l.73.32.75.28a18.5,18.5,0,0,0,1.79.55,6.23,6.23,0,0,0,.62.15c.49.11,1,.2,1.49.27.33.05.66.09,1,.11S709.37,294.38,709.75,294.39Z" stroke-miterlimit="10" fill="url(#linear-gradient-23)" stroke="url(#linear-gradient-24)"/><path d="M685.36,263.7a105.62,105.62,0,0,1-32,26.15c-2,1-4.25,2-6.51,1.71a7.88,7.88,0,0,1-3.65-1.74h0a25.35,25.35,0,0,1-2-1.84q-2.39-2.39-4.56-4.93a92.44,92.44,0,0,1,10.63-11.74c.55-.5,1.11-1,1.68-1.48A53.05,53.05,0,0,1,665,260.12c5.76-2.14,12.72-2.93,17.64.75A12.92,12.92,0,0,1,685.36,263.7Z" stroke-miterlimit="10" fill="url(#linear-gradient-25)" stroke="url(#linear-gradient-26)"/></g><g id="Layer_3" data-name="Layer 3"><path d="M718.59,193.83a140.54,140.54,0,0,1-5.06,17.8c-6.43,18.35-15.7,36.26-28.17,51.07A107,107,0,0,1,657,286.86c-1.19.69-2.4,1.35-3.63,2-2,1-4.24,2-6.5,1.71h0a7.88,7.88,0,0,1-3.65-1.74h0a25.35,25.35,0,0,1-2-1.84l-.64-.65,0,0c-.33-.33-.65-.67-1-1q-1.5-1.57-2.91-3.23c-1.34-1.56-2.63-3.17-3.85-4.82-10.57-14.17-17.05-31.38-19.84-48.91-2.41-15.09-3.35-35.58-.12-54.88a13.06,13.06,0,0,0,5.94-1.17,59,59,0,0,0,18-11.71,59.77,59.77,0,0,0,7.37-8.36c.45-.61.88-1.22,1.3-1.85a34.44,34.44,0,0,0,6-14.87c-.14-.19-.28-.39-.4-.59a13.45,13.45,0,0,1-1.41-2.71,11.12,11.12,0,0,1-.7-5.77,14.14,14.14,0,0,1,3.12-6.69v-1c.37-.1.75-.19,1.12-.27s.58-.13.87-.18a43.58,43.58,0,0,1,12.44-.66,59.77,59.77,0,0,1,27.74,10.11c.56.38,1.12.76,1.67,1.15l.43.31,1.42,1.06c.55.42,1.1.84,1.63,1.28,0,0,0,0,.07.06.5.41,1,.82,1.49,1.24,1.1,1,2.18,1.94,3.21,3,.3.29.59.58.87.88a.12.12,0,0,1,0,.05l.87.91c.33.35.66.7,1,1.07s.49.55.73.83c.56.64,1.1,1.3,1.63,2a54.77,54.77,0,0,1,3.26,4.61c.25.39.49.78.73,1.18s.55.94.82,1.42.41.75.61,1.14.27.51.39.77c.49,1,.94,1.94,1.36,2.93C721.71,166.2,721.44,180.2,718.59,193.83Z" stroke-miterlimit="10" fill="url(#linear-gradient-27)" stroke="url(#linear-gradient-28)"/></g><g id="Layer_7" data-name="Layer 7"><path d="M587.15,551.61c-.24,7.85-.28,15.88-2.93,23.28a36,36,0,0,1-8.57,13.31,46.57,46.57,0,0,1-14.08,9.53A51.17,51.17,0,0,1,550,601.29c-11.24,2-22.74.7-33.86-2.18-3.58-.93-7.11-2-10.59-3.2a778.93,778.93,0,0,1-.55-81.15c.05-1.13,0-2.55,0-4.15,0-.4,0-.81,0-1.23a.75.75,0,0,1,0-.15h0c0-.63,0-1.27,0-1.94l0-1.21c0-.46,0-.93,0-1.41,0-1.11,0-2.25,0-3.4V501c0-.36,0-.72,0-1.08s0-.76,0-1.14,0-1,.06-1.47.07-1.15.11-1.72c.39-4.9,1.36-9.36,3.6-11.79a6,6,0,0,1,1.71-1.31c4-2,10.41-.44,16.58,2,5.79,2.3,11.4,5.34,14.77,6.8a202.73,202.73,0,0,0,28.11,9.76c8,2.15,15.34,4.93,23.63,5.68C585.17,521.61,587.64,535.49,587.15,551.61Z" stroke-miterlimit="10" fill="url(#linear-gradient-29)" stroke="url(#linear-gradient-30)"/></g><g id="Layer_6" data-name="Layer 6"><path d="M865.22,513.08c-2.15,22-.68,44.12-.12,66.24.12,4.92.19,10.11-2.17,14.44s-6.73,7.06-11.22,9c-24.71,10.39-54.3,4.26-80.56-6.43a278.74,278.74,0,0,1-34.07-16.9c-38-21.95-71.52-50.49-102.59-81.58-10.34-10.34-20.4-21-30.26-31.72-3.88-4.24-7.85-8.59-12.93-11.29-6-3.2-13-3.81-19.72-4.84-9.44-1.45-24-3.19-32-8.83-8.92-6.32-2-10.75,6.36-11.49,21.7-1.91,43.8,1.69,64.58,7.86,8.73,2.59,17.3,5.66,25.75,9.05C652.84,453.18,669,461,685,468.82l104.36,50.7q-4.65-19.71-9.29-39.42,29.79-1.12,59.62-1c6.4,0,13.3.29,18.45,4l.71.53a17.56,17.56,0,0,1,5.84,9.42C866.41,499.24,865.86,506.55,865.22,513.08Z" stroke-miterlimit="10" fill="url(#linear-gradient-31)" stroke="url(#linear-gradient-32)"/></g><g id="Layer_18" data-name="Layer 18"><path d="M866.11,478c0,1.38,0,2.82-.1,4.23-.26,3.55-1.15,7-3.71,9.34l-16.39-1.45-32.22-2.86c-7.82-.69-15.65-1.34-23.47-2.08-4.81-.45-12.18.77-16.11-2.39-2.44-2-3.93-4.83-5.29-7.65a186,186,0,0,1-9.56-24c-8.8-27.48-14.37-54.92-26.1-81.56-5.93-13.45-13.35-26.39-18.84-40a106.75,106.75,0,0,1-6.69-23c-.2-1.2-.82-4-1.41-7-.39-2-.76-4.08-1-5.9-.06-.52-.12-1-.15-1.47a27.8,27.8,0,0,1,5.4-.05c8.51.78,17.5,4.1,25.45,7.07a159.74,159.74,0,0,1,44.45,25.4,127,127,0,0,1,21.14,21.8c10.82,14.1,18.67,29.72,27.62,46.7,9.76,18.5,19.37,37.1,28,56.17,3.31,7.34,7,17.13,8.35,26.7.21-.2.4-.4.59-.6Q866.1,476.73,866.11,478Z" stroke="#000" stroke-miterlimit="10" style="mix-blend-mode:soft-light"/><path d="M560.07,472.72c-.52.08-1.06.15-1.6.2-15.6,1.58-31.58-6.08-40.91-18.67a45.91,45.91,0,0,1-3.88-6.2,53.27,53.27,0,0,1-5.82-29.77c.86-9.13,3.13-15.36,7.88-18.86,3.82-2.81,9.23-3.86,16.8-3.23q2.65.22,5.28.33c5.38.26,10.71.24,16,.07-2.9,3.08-7.2,6.2-8.81,8.63a47.38,47.38,0,0,0-7.75,22.65c-.11,1.52-.13,3-.09,4.56h0a46.2,46.2,0,0,0,.86,7.5A47.68,47.68,0,0,0,551,464.43C553.86,467.29,557.16,469.88,560.07,472.72Z" stroke="#000" stroke-miterlimit="10" style="mix-blend-mode:soft-light"/><path d="M631.94,164.56c.58-.44,1.16-.89,1.72-1.36.38-.31.75-.63,1.12-.95l.81-.71,1.14-1a59.77,59.77,0,0,0,7.37-8.36,386.52,386.52,0,0,0-8.46,48.48c-2.52,22.68-2.36,47.73,11.85,65.59,3.67,4.62,8.36,8.92,9.5,14.71a15.3,15.3,0,0,1,0,5.88,31.53,31.53,0,0,1-4.47,10.41,79.88,79.88,0,0,1-18.1,20.3h0l-1-.21c-.33-.08-.67-.15-1-.24s-.94-.25-1.4-.4-.79-.25-1.18-.4-.73-.27-1.08-.43-.71-.31-1.05-.49a12.78,12.78,0,0,1-3.19-2.25c-.89-1.95-1.72-3.91-2.49-5.9v0a15.18,15.18,0,0,1,1.11-5.24c.17-.46.37-.93.58-1.4s.42-.92.65-1.38c.36-.7.74-1.41,1.15-2.11.27-.46.54-.92.83-1.38s.4-.64.62-1c.68-1.05,1.4-2.09,2.13-3.1l1.43-1.92.94-1.22.92-1.17.89-1.11c.71-.88,1.37-1.69,2-2.42l.61-.78.34-.44c.14-.18.28-.37.43-.55-1.34-1.56-2.63-3.17-3.85-4.82-10.57-14.17-17.05-31.38-19.84-48.91-2.41-15.09-3.35-35.58-.12-54.88a13.06,13.06,0,0,0,5.94-1.17l1.74-.75.46-.21q1.89-.87,3.72-1.89c.64-.35,1.27-.71,1.89-1.1s1.17-.71,1.74-1.08l.16-.1c.56-.37,1.1-.74,1.64-1.12" stroke="#000" stroke-miterlimit="10" style="mix-blend-mode:soft-light"/></g><g id="Layer_9" data-name="Layer 9"><path d="M719.59,192.83a25.66,25.66,0,0,1-5.8-3.1c-4.92-3.48-8.74-8.26-12.71-12.78a192.65,192.65,0,0,0-37.35-32.81c-3.52-2.36-7.87-5.29-10.78-8.93l-.56-.73-.29-.42a1.63,1.63,0,0,1-.11-.17c-.15-.23-.3-.46-.44-.69a.41.41,0,0,0,0-.09c-.13-.22-.25-.45-.37-.67l-.12-.25c-.12-.23-.22-.47-.32-.71s-.08-.2-.11-.3,0,0,0,0c-.09-.24-.18-.49-.26-.74a2.64,2.64,0,0,1-.12-.4c-.08-.28-.14-.55-.2-.84l-.06-.32,0-.2c0-.12,0-.23,0-.34a1.23,1.23,0,0,0,0-.19c0-.18,0-.36,0-.54a12.2,12.2,0,0,1,.1-2.16c0-.24.08-.49.14-.73l.09-.39a16.8,16.8,0,0,1,.76-2.13,1.39,1.39,0,0,1,.12-.28,16.35,16.35,0,0,1,2-3.16c.35-.44.73-.87,1.12-1.28q.43-.1.87-.18a43.16,43.16,0,0,1,9.76-.82l.79,0c.63,0,1.26.08,1.89.13a59.77,59.77,0,0,1,27.74,10.11c9.57,6.41,17.73,15.22,22.21,25.83C722.71,165.2,722.44,179.2,719.59,192.83Z" stroke-miterlimit="10" fill="url(#linear-gradient-33)" stroke="url(#linear-gradient-34)"/></g><g id="Layer_8" data-name="Layer 8"><path d="M653.1,135.06l.29.42a34.44,34.44,0,0,1-6,14.87c-.42.62-.85,1.24-1.3,1.84h0a59.77,59.77,0,0,1-7.37,8.36l-1.14,1.05-.81.71c-.37.32-.74.64-1.12,1-.56.46-1.14.92-1.72,1.36s-1.14.86-1.72,1.27l-.17.12c-.54.38-1.09.75-1.64,1.12l-.16.1q-.86.56-1.74,1.08c-.62.38-1.25.75-1.89,1.1q-1.83,1-3.72,1.89l-.46.21-1.74.75a13.06,13.06,0,0,1-5.94,1.17,6.72,6.72,0,0,1-1.12-.15c-4.52-1-6.56-5.79-5.64-12.27,2.87-20.16,24-43.56,45.79-43a21.53,21.53,0,0,1-1.8,4.81,1.39,1.39,0,0,0-.12.28,16.8,16.8,0,0,0-.76,2.13l-.09.39c-.06.24-.1.48-.14.73a11.89,11.89,0,0,0-.11,2.13c0,.1,0,.2,0,.3l0,.27a1.23,1.23,0,0,1,0,.19c0,.12,0,.23,0,.34l0,.2v0l0,.16a6,6,0,0,0,.16.71,11.59,11.59,0,0,0,.58,1.72,6.43,6.43,0,0,0,.32.71l.12.25c.12.23.24.45.37.67a.41.41,0,0,1,0,.09c.14.24.28.46.44.69A1.63,1.63,0,0,0,653.1,135.06Z" stroke-miterlimit="10" fill="url(#linear-gradient-35)" stroke="url(#linear-gradient-36)"/><path d="M544.5,380.5c6.83-18,13.53-42.08,3-52-9.51-9-26.17.17-32-8-9-12.56,16.89-53,31-50,5.36,1.15,8.35,8.42,10,14" fill="none" stroke="#999" stroke-miterlimit="10"/><path d="M581.5,380.5c6.83-18,13.53-42.08,3-52-9.51-9-26.17.17-32-8-9-12.56,16.89-53,31-50,5.36,1.15,8.35,8.42,10,14" fill="none" stroke="#999" stroke-miterlimit="10"/></g><g id="Layer_13" data-name="Layer 13"><circle cx="868" cy="225" r="33.5" stroke-miterlimit="10" fill="url(#linear-gradient-37)" stroke="url(#linear-gradient-38)"/></g><g id="Layer_19" data-name="Layer 19"><path d="M587.15,551.61c-.24,7.85-.28,15.88-2.93,23.28a36,36,0,0,1-8.57,13.31,46.57,46.57,0,0,1-14.08,9.53c-24.16-25.29-42-56.07-56.59-88.5h0c0-.63,0-1.27,0-1.94l0-1.21c0-.46,0-.93,0-1.41,0-1.11,0-2.25,0-3.4V501c0-.36,0-.72,0-1.08s0-.76,0-1.14,0-1,.06-1.47.07-1.15.11-1.72c.39-4.9,1.36-9.36,3.6-11.79a6,6,0,0,1,1.71-1.31c4-2,10.41-.44,16.58,2,5.79,2.3,11.4,5.34,14.77,6.8a202.73,202.73,0,0,0,28.11,9.76c8,2.15,15.34,4.93,23.63,5.68C585.17,521.61,587.64,535.49,587.15,551.61Z" stroke="#000" stroke-miterlimit="10" style="mix-blend-mode:soft-light"/></g></g></svg>