<svg xmlns="http://www.w3.org/2000/svg" xmlns:xlink="http://www.w3.org/1999/xlink" viewBox="0 0 1366 768"><defs><linearGradient id="linear-gradient" x1="383.41" y1="376.57" x2="826.42" y2="376.57" gradientUnits="userSpaceOnUse"><stop offset="0" stop-color="#138086"/><stop offset="0" stop-color="#cd7672"/></linearGradient><linearGradient id="New_Gradient_Swatch_1" x1="402.67" y1="343.33" x2="1014.83" y2="343.33" gradientUnits="userSpaceOnUse"><stop offset="0" stop-color="#138086"/><stop offset="1" stop-color="#cd7672"/></linearGradient><linearGradient id="linear-gradient-2" x1="826.42" y1="295.06" x2="1005.08" y2="295.06" gradientUnits="userSpaceOnUse"><stop offset="1" stop-color="#4c8e93"/><stop offset="1" stop-color="#cd7672"/></linearGradient><linearGradient id="New_Gradient_Swatch_3" x1="654.79" y1="190.18" x2="681.47" y2="190.18" gradientUnits="userSpaceOnUse"><stop offset="0" stop-color="#534666"/><stop offset="1" stop-color="#534666" stop-opacity="0.6"/></linearGradient><linearGradient id="New_Gradient_Swatch_5" x1="656.25" y1="194.61" x2="680.37" y2="194.61" gradientUnits="userSpaceOnUse"><stop offset="0" stop-color="#eeb462"/><stop offset="1" stop-color="#eeb462" stop-opacity="0.6"/></linearGradient><linearGradient id="linear-gradient-3" x1="557.09" y1="302.45" x2="790.8" y2="302.45" gradientUnits="userSpaceOnUse"><stop offset="0" stop-color="#534666" stop-opacity="0.6"/><stop offset="1" stop-color="#534666"/></linearGradient><linearGradient id="New_Gradient_Swatch_3-2" x1="654.67" y1="231.05" x2="682.66" y2="231.05" xlink:href="#New_Gradient_Swatch_3"/><linearGradient id="New_Gradient_Swatch_3-3" x1="689.35" y1="260.62" x2="692.24" y2="260.62" xlink:href="#New_Gradient_Swatch_3"/><linearGradient id="New_Gradient_Swatch_3-4" x1="585.49" y1="299.58" x2="772.43" y2="299.58" xlink:href="#New_Gradient_Swatch_3"/><linearGradient id="linear-gradient-4" x1="542.97" y1="435.7" x2="800.82" y2="435.7" gradientUnits="userSpaceOnUse"><stop offset="0" stop-color="#eeb462" stop-opacity="0.6"/><stop offset="0.7" stop-color="#eeb462"/></linearGradient><linearGradient id="New_Gradient_Swatch_4" x1="650.49" y1="485.9" x2="692.9" y2="485.9" gradientUnits="userSpaceOnUse"><stop offset="0" stop-color="#cd7672"/><stop offset="1" stop-color="#cd7672" stop-opacity="0.6"/></linearGradient><linearGradient id="New_Gradient_Swatch_2" x1="644.43" y1="490.78" x2="695.97" y2="490.78" gradientUnits="userSpaceOnUse"><stop offset="0" stop-color="#138086"/><stop offset="1" stop-color="#138086" stop-opacity="0.6"/></linearGradient><linearGradient id="New_Gradient_Swatch_2-2" x1="689.15" y1="486.88" x2="691.86" y2="486.88" xlink:href="#New_Gradient_Swatch_2"/><linearGradient id="New_Gradient_Swatch_2-3" x1="638.03" y1="477.06" x2="692.32" y2="477.06" xlink:href="#New_Gradient_Swatch_2"/><linearGradient id="linear-gradient-5" x1="654.67" y1="232.56" x2="676.86" y2="232.56" gradientUnits="userSpaceOnUse"><stop offset="0.16" stop-color="#65888e"/><stop offset="0.81" stop-color="#138086" stop-opacity="0.6"/></linearGradient><linearGradient id="linear-gradient-6" x1="651.65" y1="258.61" x2="686.58" y2="258.61" xlink:href="#linear-gradient-5"/><linearGradient id="linear-gradient-7" x1="585.49" y1="306.01" x2="772.43" y2="306.01" gradientUnits="userSpaceOnUse"><stop offset="0.04" stop-color="#eeb462"/><stop offset="0.91" stop-color="#eeb462" stop-opacity="0.6"/></linearGradient><linearGradient id="New_Gradient_Swatch_5-2" x1="727.57" y1="343.1" x2="727.79" y2="343.1" xlink:href="#New_Gradient_Swatch_5"/><linearGradient id="New_Gradient_Swatch_5-3" x1="735.53" y1="343.08" x2="754.88" y2="343.08" xlink:href="#New_Gradient_Swatch_5"/><linearGradient id="New_Gradient_Swatch_5-4" x1="772.19" y1="326.68" x2="772.97" y2="326.68" xlink:href="#New_Gradient_Swatch_5"/><linearGradient id="linear-gradient-8" x1="625.57" y1="374.18" x2="721.8" y2="374.18" xlink:href="#New_Gradient_Swatch_5"/><linearGradient id="New_Gradient_Swatch_2-4" x1="597.19" y1="349.56" x2="682.92" y2="349.56" xlink:href="#New_Gradient_Swatch_2"/><linearGradient id="New_Gradient_Swatch_2-5" x1="681.51" y1="329.33" x2="682.93" y2="329.33" xlink:href="#New_Gradient_Swatch_2"/><linearGradient id="New_Gradient_Swatch_2-6" x1="681.51" y1="348.27" x2="768.42" y2="348.27" xlink:href="#New_Gradient_Swatch_2"/><linearGradient id="New_Gradient_Swatch_2-7" x1="727.57" y1="343.1" x2="727.79" y2="343.1" xlink:href="#New_Gradient_Swatch_2"/><linearGradient id="New_Gradient_Swatch_2-8" x1="735.53" y1="343.08" x2="754.88" y2="343.08" xlink:href="#New_Gradient_Swatch_2"/><linearGradient id="New_Gradient_Swatch_4-2" x1="591.45" y1="321.74" x2="632.19" y2="321.74" xlink:href="#New_Gradient_Swatch_4"/><linearGradient id="New_Gradient_Swatch_4-3" x1="723.26" y1="322.1" x2="758.46" y2="322.1" xlink:href="#New_Gradient_Swatch_4"/><linearGradient id="New_Gradient_Swatch_4-4" x1="644.43" y1="268.81" x2="692.13" y2="268.81" xlink:href="#New_Gradient_Swatch_4"/><linearGradient id="New_Gradient_Swatch_4-5" x1="689.35" y1="260.89" x2="692.24" y2="260.89" xlink:href="#New_Gradient_Swatch_4"/><linearGradient id="linear-gradient-9" x1="423.52" y1="295.4" x2="510.42" y2="295.4" gradientUnits="userSpaceOnUse"><stop offset="1" stop-color="#a5bf9d"/><stop offset="1" stop-color="#cd7672"/></linearGradient></defs><title>meditator</title><g style="isolation:isolate"><g id="Layer_20" data-name="Layer 20"><ellipse cx="604.91" cy="376.57" rx="221.51" ry="192.7" fill="url(#linear-gradient)"/></g><g id="Layer_19" data-name="Layer 19"><path d="M706.7,527.67A284.52,284.52,0,0,1,629,510.07a36.08,36.08,0,0,0,6.63-2.21c9-3.95,16.44-13.23,17.41-23.87L693,486.72l.49,0c1.29,9,6.23,16.64,15.92,19.28,7.87,2.15,16.17.21,23.85-2.65,33-12.31,60.31-43.58,66.43-82.59a82.25,82.25,0,0,0,1.1-13.94c-.11-8.38-2-16.91-6.27-23.76a26.24,26.24,0,0,0-7.74-8c-7.19-4.8-16.26-5.67-24.74-4.34a87,87,0,0,0-35.29,14c-13.63,9.38-26.26,17.64-40.51,20.56a55.85,55.85,0,0,1-24-.38c-20.75-4.72-35.66-19.07-53.52-30.24l-1.75-1.1c-.82-.51-1.65-1-2.49-1.52l-1.29-.78q-2.06-1.21-4.15-2.4c-12.34-7-25.33-12-38.4-5.58a32.48,32.48,0,0,0-3,1.66c-15.22,9.6-15.75,34.33-14,51.29a128.79,128.79,0,0,0,21.11,58.95c.13.19.25.38.38.56-65.89-46-103.76-106.45-148.31-113.9-69.27-11.6,129.78-165.76,289.87-165.76S802,34.8,996.57,361.91C1077,497,875.91,542.33,706.7,527.67Z" fill="url(#New_Gradient_Swatch_1)"/><ellipse cx="915.75" cy="295.06" rx="89.33" ry="100.27" fill="url(#linear-gradient-2)"/></g><g id="Layer_18" data-name="Layer 18"><path d="M680.43,197.1a.2.2,0,0,1-.06.09A7.43,7.43,0,0,1,677,200l-.77-.24c-.26-.09-.51-.16-.77-.23l-.8-.21-.79-.19c-.79-.17-1.58-.32-2.38-.43l-.81-.1a3,3,0,0,0-.43,0,33.44,33.44,0,0,0-4.46-.2,26.14,26.14,0,0,0-6.13.88,9.62,9.62,0,0,1-2.92-2.18,7,7,0,0,1-.51-.63,7.23,7.23,0,0,1-.82-1.36c-3-6.48,5.37-13.71,10.67-14.6a12.43,12.43,0,0,1,5,.2A14.14,14.14,0,0,1,679,186C681.31,189.09,682.43,193.78,680.43,197.1Z" fill="url(#New_Gradient_Swatch_3)"/><g id="Layer_18_copy" data-name="Layer 18 copy"><path d="M680.37,197.19A7.43,7.43,0,0,1,677,200a33.22,33.22,0,0,0-11.21-1.65,26.14,26.14,0,0,0-6.13.88,9.62,9.62,0,0,1-2.92-2.18,7,7,0,0,1-.51-.63c2.24-3.65,6.62-6.55,9.85-7.09A13.62,13.62,0,0,1,679,194.87,13.28,13.28,0,0,1,680.37,197.19Z" fill="url(#New_Gradient_Swatch_5)"/></g><g id="Layer_17" data-name="Layer 17"><path d="M786.2,375.78c-7.2-4.8-16.27-5.67-24.75-4.34a83.66,83.66,0,0,0-18.08,5.1,107.23,107.23,0,0,0-17.51,9l-2,1.32c-.68.45-1.35.9-2,1.37l-.86.59c-7,4.83-12.4,11-20.32,13.74A72,72,0,0,1,677,406.52c-18.57,0-34.86-7.68-50.33-18.61l-3.45-2.43c-1.09-.77-2.19-1.53-3.29-2.29a.88.88,0,0,1-.17-.12l-2.93-2c-2.09-1.41-4.18-2.8-6.3-4.16l-2.37-1.51-1.75-1.09c-.83-.52-1.66-1-2.5-1.53l-1.28-.77q-2.07-1.23-4.15-2.41c-12.35-7-25.34-12-38.41-5.57a15.43,15.43,0,0,1-2.58-4.75c-1.07-3.72.37-7.88,2.73-10.74,4.72-5.69,14.48-7.93,13-17.94-.5-3.34-2.38-6.66-1.44-9.88,1.27-4.34,6.48-5.06,9.47-8.14,3.72-3.83,3.35-10.34,4.21-15.91a29.67,29.67,0,0,1,7.68-15.92c3.71-3.85,8.74-7,9.78-12.52.48-2.55,0-5.19.14-7.79,1.21-20,28.44-21.1,35.81-37.32,1-2.14,1.85-4.35,2.76-6.53a42.21,42.21,0,0,1,3.79-7.32,24.78,24.78,0,0,1,9.42-8.18,26.32,26.32,0,0,1,11-2.72,33.53,33.53,0,0,1,4.89.25A31.34,31.34,0,0,1,677,200a27.05,27.05,0,0,1,4.45,1.95,22.85,22.85,0,0,1,9.46,9.59c3.24,6.22,4,13.17,10.14,17,4.44,2.81,10,3.21,13.73,7.41,3.4,3.84,4.37,9.65,7.56,13.7,7.83,9.9,21.34,7.28,23.69,22.92.76,5,.9,10.47,3.5,14.67,3.67,5.91,11,7.45,15.4,12.69,5.68,6.77,4.87,17.3,7.24,26.27-13.59-6-19.51-23.81-28.42-37-.39-.58-.78-1.14-1.18-1.7-12.83-17.84-30.76-24.45-50.36-26.79a.06.06,0,0,1,0,0h-.11l-2.78-.27-1.36-.13-1.41-.14a2.41,2.41,0,0,0-.23-.94,1.58,1.58,0,0,0-.26-.38,9.6,9.6,0,0,0-1.57-1,17.19,17.19,0,0,1-4.25-4.09,18,18,0,0,1-2.28-3.37,2,2,0,0,1-.13-.25.08.08,0,0,1,0,0c-.07-.13-.13-.26-.18-.37l-.27-.53-.15-.32a7.7,7.7,0,0,0-.51-.87l-.16-.21-.18-.2h0a15.85,15.85,0,0,0,1.84-3.1c.13-.27.25-.57.38-.86l.2-.45c.11-.25.21-.51.32-.78a58.15,58.15,0,0,0,2.08-6.08c.09-.34.19-.68.28-1s.24-1,.35-1.48c0-.2.09-.41.13-.61s.13-.65.19-1,.14-.82.2-1.23l.06-.37.06-.55c.06-.44.1-.87.13-1.3l0-.54a1.48,1.48,0,0,0,0-.21,2.81,2.81,0,0,0,0-.29.34.34,0,0,0,0-.1c0-.26,0-.51,0-.77,0-3.43-.76-6.59-2.78-8.85l-.29-.31a8.22,8.22,0,0,0-.61-.57,7.4,7.4,0,0,0-.69-.53,10,10,0,0,0-2-1.08c-6.19-2.52-14.82-2.35-19,2.68a10.25,10.25,0,0,0-1.91,3.4,14.63,14.63,0,0,0-.6,5.84c.47,6.16,3,13.67,7,18.77a5,5,0,0,0,.89,1.9,20.58,20.58,0,0,0-2.39,4l-.35.6a14.32,14.32,0,0,1-2.13,2.7l-.34.33c-.27.25-.56.51-.87.76a33.8,33.8,0,0,0-3.27,3h-1.89l-.24.33c-1.07.85-3.89,1.24-6.74,1.53s-5.9.48-7.09.91a39.81,39.81,0,0,0-13.88,9.15c-9.91,9.67-15.88,23.16-25.55,33.1a66.2,66.2,0,0,1-6.46,5.86c-.81.65-1.64,1.27-2.49,1.88-1.39,1-2.94,2.11-3.35,3.9-1,4.43,4.71,8.08,7,10.78a92.28,92.28,0,0,0,6.43,6.81q2.19,2.09,4.48,4,1.13.93,2.31,1.8a34.75,34.75,0,0,0,11.2,5.67,14.14,14.14,0,0,0,4.29.52h.3a10.15,10.15,0,0,0,3.07-.65c3.13-1.2,4.57-3.57,5.54-6.35.49-1.4.86-2.89,1.28-4.39a78.07,78.07,0,0,1-.14,8.91c-.13,1.64-.31,3.28-.53,4.91,1.83-.18,3.65-.3,5.49-.39,6.75-.28,12.82,2,19.45,3a11.05,11.05,0,0,0,5.21-.26c3.83-1.37,6-5.86,7.39-10.07,2.37-7,6-13.1,12-16.56.62-.36,1.47-.66,2-.1a2.09,2.09,0,0,1,.39,1.22c.07.69.11,1.38.13,2.06,1.77,2.6,4.75,5.28,6,6.74A67.46,67.46,0,0,1,697,345.09c1.45,2.7,2.17,6.76,5.47,7.26s6.92-2.82,9.91-4c1.53-.57,3-1.17,4.57-1.78a68.39,68.39,0,0,1-.25-13.12c.34-4.09.44-8.79,1.76-12.54,5.57,4.57,8.49,14.57,9.21,22,.15,1.48.32,3.16,1.41,4a3.81,3.81,0,0,0,3,.34,74,74,0,0,0,10.6-2.64,80.59,80.59,0,0,0,23.84-12.62c2-1.55,4-3.2,5.9-5a25.84,25.84,0,0,0,1.33,3.64c3.36,7.38,10.24,12,13.94,19.21C792.8,359.79,791.12,368.49,786.2,375.78Z" fill="url(#linear-gradient-3)"/><path d="M678.21,244.52a15.85,15.85,0,0,1-1.84,3.1,3,3,0,0,0-1-.65c-.87-.38-1.14-.14-4.26,0a29.21,29.21,0,0,1-4.79-.08,6.66,6.66,0,0,0-1.22-.09,3.13,3.13,0,0,0-.67.17,4.65,4.65,0,0,0-1.41.78l-.41.39a5,5,0,0,1-.89-1.9c-4-5.1-6.56-12.61-7-18.77a14.63,14.63,0,0,1,.6-5.84,10.25,10.25,0,0,1,1.91-3.4c4.23-5,12.86-5.2,19-2.68C686.94,219.89,681.83,236.52,678.21,244.52Z" fill="url(#New_Gradient_Swatch_3-2)"/><path d="M692.24,260.74a.06.06,0,0,0,0,0c-1-.12-1.92-.22-2.88-.32Z" fill="url(#New_Gradient_Swatch_3-3)"/><path d="M772.43,327.09c-1.9,1.77-3.87,3.42-5.9,5a78.92,78.92,0,0,1-34.44,15.26,3.81,3.81,0,0,1-3-.34c-1.09-.83-1.26-2.51-1.41-4-.72-7.47-3.64-17.47-9.21-22-1.32,3.75-1.42,8.45-1.76,12.54a68.39,68.39,0,0,0,.25,13.12c-1.52.61-3,1.21-4.57,1.78-3,1.14-6.6,4.46-9.91,4s-4-4.56-5.47-7.26a67.46,67.46,0,0,0-8.09-11.31c-1.23-1.46-4.21-4.14-6-6.74,0-.68-.06-1.37-.13-2.06a2.09,2.09,0,0,0-.39-1.22c-.5-.56-1.35-.26-2,.1-6.06,3.46-9.68,9.6-12,16.56-1.43,4.21-3.56,8.7-7.39,10.07a11.05,11.05,0,0,1-5.21.26c-6.63-.94-12.7-3.24-19.45-3-1.84.09-3.66.21-5.49.39.22-1.63.4-3.27.53-4.91a78.07,78.07,0,0,0,.14-8.91c-.42,1.5-.79,3-1.28,4.39-1,2.78-2.41,5.15-5.54,6.35a10.15,10.15,0,0,1-3.07.65h-.3a14.14,14.14,0,0,1-4.29-.52,34.75,34.75,0,0,1-11.2-5.67q-1.19-.87-2.31-1.8-2.29-1.9-4.48-4a92.28,92.28,0,0,1-6.43-6.81c-2.29-2.7-8-6.35-7-10.78.41-1.79,2-2.9,3.35-3.9.85-.61,1.68-1.23,2.49-1.88a66.2,66.2,0,0,0,6.46-5.86c9.67-9.94,15.64-23.43,25.55-33.1a39.81,39.81,0,0,1,13.88-9.15c2.35-.86,11.66-.73,13.83-2.44l.24-.33h1.89a33.8,33.8,0,0,1,3.27-3c5-4,4.2-8.23,7.9-9.55,1.4-.5,1.1.25,6.68,0,3.12-.14,3.39-.38,4.26,0,2.17.95,1.58,2.93,4.86,6.82a17.19,17.19,0,0,0,4.25,4.09,9.6,9.6,0,0,1,1.57,1,1.58,1.58,0,0,1,.26.38,2.41,2.41,0,0,1,.23.94l1.41.14,1.36.13c21.33,2.11,40.91,8.78,54.42,28.81,8.91,13.19,14.83,31,28.42,37Z" fill="url(#New_Gradient_Swatch_3-4)"/></g></g><g id="Layer_12" data-name="Layer 12"><path d="M799.71,420.8c-6.12,39-33.4,70.28-66.43,82.59-7.68,2.86-16,4.8-23.85,2.65A20.46,20.46,0,0,1,696,495h0c-.15-.3-.29-.6-.42-.91-.28-.62-.52-1.25-.75-1.9-.11-.32-.21-.65-.31-1s-.18-.62-.27-.93c-.2-.77-.38-1.55-.52-2.34,0-.25-.09-.5-.12-.75a.13.13,0,0,1,0-.06l-.06-.35-.49,0-1.11-.07-1.26-.09h0c-.25-.05-.47-.11-.65-.16l-1.37-.46c-10.81-3.61-21.28-7.48-32.76-7.18a10.59,10.59,0,0,0-3.9.65,10.7,10.7,0,0,0-4.11,3.6c-.35.47-.69,1-1,1.48l-.08.13a13.22,13.22,0,0,0-2.22,8.68,4.94,4.94,0,0,0,1.32,2.94,5.41,5.41,0,0,0,1.92,1l.37.13a30,30,0,0,1-12.48,10.5,36.08,36.08,0,0,1-6.63,2.21c-24,5.54-49.77-13.84-63.89-34.26-.13-.18-.25-.37-.38-.56a128.79,128.79,0,0,1-21.11-58.95c-1.72-17-1.19-41.69,14-51.29a32.48,32.48,0,0,1,3-1.66c13.07-6.46,26.06-1.4,38.4,5.58q2.1,1.19,4.15,2.4l1.29.78c.84.5,1.67,1,2.49,1.52l1.75,1.1c17.86,11.17,32.77,25.52,53.52,30.24a55.85,55.85,0,0,0,24,.38c14.25-2.92,26.88-11.18,40.51-20.56a87,87,0,0,1,35.29-14c8.48-1.33,17.55-.46,24.74,4.34a26.24,26.24,0,0,1,7.74,8c4.31,6.85,6.16,15.38,6.27,23.76A82.25,82.25,0,0,1,799.71,420.8Z" fill="url(#linear-gradient-4)"/><path d="M650.49,484.35c20.06,3.41,42.41,3.09,42.41,3.09Z" fill="url(#New_Gradient_Swatch_4)"/></g><g id="Layer_2" data-name="Layer 2"><g style="mix-blend-mode:soft-light"><path d="M742.66,344.57a91.76,91.76,0,0,0,12.22-5.06,77.79,77.79,0,0,1-12.19,5.17Z"/><path d="M754.88,339.51a91.76,91.76,0,0,1-12.22,5.06l0,.11a77.79,77.79,0,0,0,12.19-5.17Z"/></g><g style="mix-blend-mode:soft-light"><path d="M743.53,376.13a13,13,0,0,1-1-3.38.68.68,0,0,1,0-.19,31.76,31.76,0,0,0,8.84-2.88,46.65,46.65,0,0,0,11.2-7.42,21.44,21.44,0,0,0,6.15-13.79c.45-5.63-.87-12.64-1.7-16.31h0c1.86-1.43,3.64-2.94,5.32-4.47a29,29,0,0,0,1.19,3.19c1.78,3.91,4.57,7.1,7.27,10.18a46.83,46.83,0,0,1,6.69,9c4.48,8.67,4,17.16-1.31,25.25-4.88-3.18-10.82-4.78-17.64-4.78a46.41,46.41,0,0,0-7.07.56A83.75,83.75,0,0,0,743.53,376.13Z"/><path d="M772.11,328.26a26.5,26.5,0,0,0,1.06,2.74c1.8,3.95,4.6,7.16,7.31,10.26a46.43,46.43,0,0,1,6.65,9c4.38,8.46,4,16.75-1.12,24.65a32.24,32.24,0,0,0-17.54-4.66,47.19,47.19,0,0,0-7.12.57,83.59,83.59,0,0,0-17.65,4.92,13.2,13.2,0,0,1-.88-2.9,32,32,0,0,0,8.63-2.85,47.65,47.65,0,0,0,11.27-7.47,21.73,21.73,0,0,0,6.25-14c.45-5.59-.83-12.49-1.67-16.22,1.68-1.3,3.29-2.65,4.81-4m.32-1.17c-1.9,1.77-3.87,3.42-5.9,5a80.31,80.31,0,0,1-11.65,7.45l.59-.29a72.22,72.22,0,0,0,11.16-7h0c1.2,5.3,2.08,11.5,1.7,16.21A21.1,21.1,0,0,1,762.28,362a46.62,46.62,0,0,1-11.12,7.37,31.68,31.68,0,0,1-9.06,2.89,4.46,4.46,0,0,0,.07.51,13.31,13.31,0,0,0,1.2,3.74,83.66,83.66,0,0,1,18.08-5.1,45.73,45.73,0,0,1,7-.56,31.68,31.68,0,0,1,17.73,4.9c4.92-7.29,6.6-16,1.5-25.84-3.7-7.17-10.58-11.83-13.94-19.21a25.84,25.84,0,0,1-1.33-3.64Z"/></g><g style="mix-blend-mode:soft-light"><path d="M771.72,325.69c-9.33-4.46-15.08-14.78-20.64-24.76-2.23-4-4.53-8.13-7-11.84-.38-.56-.76-1.11-1.15-1.65-1.06-6.34-3.8-14.81-10.83-19.32a34.89,34.89,0,0,0-5.39-2.64c-2.7-1.14-5.24-2.22-7.35-4.21-3-2.85-4.63-7.19-6.19-11.39-1.81-4.83-3.67-9.83-7.69-12.52a20.65,20.65,0,0,0-5.31-2.27,22.83,22.83,0,0,1-4.53-1.79c-4.43-2.53-6.77-7.48-9.25-12.71-2-4.28-4.13-8.71-7.48-11.71-.73-.65-1.56-1.29-2.36-1.91-2.7-2.09-5.49-4.26-5.53-7.57,0-.09,0-.2,0-.31V199l.48.06c.82.12,1.58.26,2.35.43l.91.21.66.18.27.08.49.14.76.24a28.08,28.08,0,0,1,4.41,1.93l.39.23a22.38,22.38,0,0,1,8.94,9.23,58.38,58.38,0,0,1,2.41,5.56c1.77,4.53,3.45,8.82,7.84,11.6a31.15,31.15,0,0,0,5.54,2.56c3,1.17,5.9,2.27,8.12,4.79a26.3,26.3,0,0,1,4,7,29.9,29.9,0,0,0,3.6,6.66c3.11,3.94,7.08,5.91,10.92,7.81,5.81,2.89,11.3,5.62,12.7,15,.15,1,.28,2.05.41,3.09.5,4.08,1,8.29,3.14,11.7s5.23,5.27,8.31,7.19a28.46,28.46,0,0,1,7.11,5.54c3.77,4.49,4.62,10.56,5.53,17C770.63,320,771,322.93,771.72,325.69Z"/><path d="M671.3,199.35h.12c.81.12,1.57.26,2.32.43l.78.18.11,0,.67.18.26.07.5.15.75.24a27,27,0,0,1,4.36,1.91l.39.22a22.15,22.15,0,0,1,8.8,9.1,56.55,56.55,0,0,1,2.4,5.52c1.79,4.59,3.49,8.92,8,11.76a30.46,30.46,0,0,0,5.6,2.59c3,1.16,5.83,2.25,8,4.71a25.77,25.77,0,0,1,3.9,6.94,29.55,29.55,0,0,0,3.64,6.73c3.16,4,7.15,6,11,7.9,6,3,11.15,5.54,12.53,14.72.15,1,.28,2.06.41,3.08.51,4.11,1,8.36,3.18,11.83s5.31,5.36,8.42,7.3a28.12,28.12,0,0,1,7,5.47c3.7,4.41,4.55,10.44,5.45,16.83.37,2.6.74,5.28,1.33,7.85-8.87-4.58-14.46-14.61-19.88-24.33-2.23-4-4.54-8.14-7.05-11.86q-.55-.81-1.11-1.59c-1.08-6.41-3.86-14.92-11-19.47a35.93,35.93,0,0,0-5.43-2.67c-2.67-1.13-5.2-2.19-7.26-4.14-3-2.8-4.56-7.11-6.11-11.27-1.82-4.88-3.7-9.93-7.81-12.68a20.51,20.51,0,0,0-5.39-2.3,22.75,22.75,0,0,1-4.47-1.77c-4.34-2.48-6.66-7.38-9.12-12.57-2-4.31-4.15-8.77-7.56-11.81-.74-.66-1.57-1.3-2.37-1.92-2.76-2.14-5.37-4.17-5.41-7.32v-.05m-.6-.72c0,.15,0,.3,0,.45s0,.22,0,.32c.05,4.48,4.8,6.87,8,9.72,7.28,6.49,8.51,19.73,16.79,24.46,3.12,1.78,6.82,2,9.82,4,7.38,4.94,7.27,17.67,13.83,23.88,3.64,3.44,8.67,4.25,12.8,6.89,6.12,3.93,9.38,11.22,10.7,19.18.4.56.79,1.12,1.18,1.7,8.91,13.19,14.83,31,28.42,37-2.37-9-1.56-19.5-7.24-26.27-4.4-5.24-11.73-6.78-15.4-12.69-2.6-4.2-2.74-9.63-3.5-14.67-2.35-15.64-15.86-13-23.69-22.92-3.19-4.05-4.16-9.86-7.56-13.7-3.7-4.2-9.29-4.6-13.73-7.41-6.1-3.87-6.9-10.82-10.14-17a22.78,22.78,0,0,0-9-9.36l-.41-.23A27.05,27.05,0,0,0,677,200l-.77-.24c-.26-.09-.51-.15-.77-.23l-.8-.21-.79-.19c-.79-.17-1.58-.32-2.38-.43l-.81-.1Z"/></g></g><g id="Layer_16" data-name="Layer 16"><path d="M696,495c-14.27,12.09-31.88,8-47.83,2.38l-.37-.13a5.41,5.41,0,0,1-1.92-1,4.94,4.94,0,0,1-1.32-2.94,13.22,13.22,0,0,1,2.22-8.68l.08-.13c.33-.51.67-1,1-1.48a10.7,10.7,0,0,1,4.11-3.6,10.59,10.59,0,0,1,3.9-.65c11.48-.3,21.95,3.57,32.76,7.18l1.37.46c.18.05.4.11.65.16l-1.49-.1,2.51.84a5.38,5.38,0,0,0,.2-.51c.53.09,1.12.19,1.71.32a.13.13,0,0,0,0,.06c0,.25.08.5.12.75.14.79.32,1.57.52,2.34.09.31.17.62.27.93s.2.65.31,1c.23.65.47,1.28.75,1.9.13.31.27.61.42.91Z" fill="url(#New_Gradient_Swatch_2)"/><path d="M691.86,486.79a5.38,5.38,0,0,1-.2.51l-2.51-.84,1.49.1h0C691,486.64,691.41,486.71,691.86,486.79Z" fill="url(#New_Gradient_Swatch_2-2)"/></g><g id="Layer_15" data-name="Layer 15"><path d="M692.29,484.71a7.42,7.42,0,0,1-.38,1.94c0,.05,0,.1,0,.14a5.38,5.38,0,0,1-.2.51l-2.51-.84,1.49.1c-.25-.05-.47-.11-.65-.16l-1.37-.46c-10.81-3.61-21.28-7.48-32.76-7.18a10.59,10.59,0,0,0-3.9.65,10.7,10.7,0,0,0-4.11,3.6c-.35.47-.69,1-1,1.48l-.08.13q-4.38-1.81-8.72-3.91c3.63-2.3,6.63-5.65,10.11-8.21a25.29,25.29,0,0,1,2.6-1.71c11.33-6.59,26.17-4.76,36.27,3.92C689.87,477.16,692.58,480.67,692.29,484.71Z" fill="url(#New_Gradient_Swatch_2-3)"/></g><g id="Layer_3" data-name="Layer 3"><path d="M654.73,227.47a14.63,14.63,0,0,1,.6-5.84,10.25,10.25,0,0,1,1.91-3.4,19.51,19.51,0,0,0,3.08.68l9.8,1.5c1.74.26,3.63.6,4.86,2a8.88,8.88,0,0,1,1.64,4.91c.58,5.25.26,11-2.57,15.2a9.7,9.7,0,0,1-7.69,4.35,6.21,6.21,0,0,1-1.22-.09,6.3,6.3,0,0,1-3.48-1.77,4.4,4.4,0,0,0,.1,1.21C657.72,241.14,655.2,233.63,654.73,227.47Z" fill="url(#linear-gradient-5)"/><path d="M686.58,260.19l-.36,0-.07,0a19.4,19.4,0,0,1-6.2,7.26,12.83,12.83,0,0,1-4,1.75h0a21.12,21.12,0,0,1-12-1,32.77,32.77,0,0,1-3.42-1.44c-.52-.26-1-.53-1.51-.8,0,0,0,0,0,0l-.48-.28c-.25-.14-.48-.29-.71-.43h0a15,15,0,0,1-3.82-3.47,15.56,15.56,0,0,1-1.09-1.6,11.05,11.05,0,0,0-1.23-.52h1.65a33.8,33.8,0,0,1,3.27-3c.31-.25.6-.51.87-.76l.34-.33a14.32,14.32,0,0,0,2.13-2.7l.35-.6a20.58,20.58,0,0,1,2.39-4,7,7,0,0,0,4.05,2.48,11,11,0,0,0,7.81-1.64,16.2,16.2,0,0,0,1.88-1.35l.18.2.16.21a7.7,7.7,0,0,1,.51.87l.15.32.27.53c.05.11.11.24.18.37a.08.08,0,0,0,0,0,2,2,0,0,0,.13.25,18,18,0,0,0,2.28,3.37,17.19,17.19,0,0,0,4.25,4.09,9.6,9.6,0,0,1,1.57,1,1.58,1.58,0,0,1,.26.38A2.41,2.41,0,0,1,686.58,260.19Z" fill="url(#linear-gradient-6)"/></g><g id="Layer_5" data-name="Layer 5"><path d="M772.43,327.09c-1.9,1.77-3.87,3.42-5.9,5a80.31,80.31,0,0,1-11.65,7.45,91.76,91.76,0,0,1-12.22,5.06c-2.35.78-4.73,1.48-7.13,2.08l-.08,0c-1.12.24-2.24.46-3.36.65a3.81,3.81,0,0,1-3-.34,4.14,4.14,0,0,1-1.27-2.84s0,0,0,0c0-.2,0-.41,0-.6,0-.47-.06-.94-.1-1.41,0,0,0,0-.08,0-.83-7.13-3.58-16.2-8.62-20.75l-.5-.43c-1.32,3.75-1.42,8.45-1.76,12.54a68.39,68.39,0,0,0,.25,13.12c-1.52.61-3,1.21-4.57,1.78a24.79,24.79,0,0,0-3.42,1.8c-2.13,1.23-4.37,2.48-6.49,2.16-3.3-.5-4-4.56-5.47-7.26a67.46,67.46,0,0,0-8.09-11.31c-.62-.73-1.69-1.78-2.82-3-.21-.22-.42-.44-.62-.67a29.8,29.8,0,0,1-2.2-2.61c-.1-.13-.2-.28-.29-.41l-.05-.07c0-.68-.06-1.37-.13-2.06a2.09,2.09,0,0,0-.39-1.22c-.5-.56-1.35-.26-2,.1-6.06,3.46-9.68,9.6-12,16.56-1.43,4.21-3.56,8.7-7.39,10.07a11.05,11.05,0,0,1-5.21.26c-6.63-.94-12.7-3.24-19.45-3-1.84.09-3.66.21-5.49.39.22-1.63.4-3.27.53-4.91a78.07,78.07,0,0,0,.14-8.91c-.42,1.5-.79,3-1.28,4.39-1,2.78-2.41,5.15-5.54,6.35a10.15,10.15,0,0,1-3.07.65h-.3a14.14,14.14,0,0,1-4.29-.52,34.75,34.75,0,0,1-11.2-5.67q-1.19-.87-2.31-1.8-2.29-1.9-4.48-4a92.28,92.28,0,0,1-6.43-6.81c-2.29-2.7-8-6.35-7-10.78.41-1.79,2-2.9,3.35-3.9.85-.61,1.68-1.23,2.49-1.88a66.2,66.2,0,0,0,6.46-5.86c9.67-9.94,15.64-23.43,25.55-33.1a39.81,39.81,0,0,1,13.88-9.15c1.19-.43,4.16-.61,7.09-.91s5.67-.68,6.74-1.53a1.81,1.81,0,0,0,.24-.24,3.35,3.35,0,0,0-.55.87,1.36,1.36,0,0,0-.08.32v.13a2.51,2.51,0,0,0,.57,1.57c1,1.39,3.1,2.6,4.57,3.44l1.24.66h0c.47.24.92.46,1.38.66l.11,0a30.33,30.33,0,0,0,6.2,2,29.75,29.75,0,0,0,3.11.45,27.64,27.64,0,0,0,6.12.16h0a13.71,13.71,0,0,0,3.71-1,15.28,15.28,0,0,0,2.34-1.28,14.86,14.86,0,0,0,3.73-3.5,16.82,16.82,0,0,0,1.41-2.09,11.11,11.11,0,0,0,.9-1.87l.36,0,1.41.14,1.36.13c.93.1,1.86.19,2.78.31h.1c19.6,2.34,37.53,9,50.36,26.79.4.56.79,1.12,1.18,1.7,8.91,13.19,14.83,31,28.42,37Z" fill="url(#linear-gradient-7)"/><path d="M727.79,344.1c0-.36-.09-.75-.13-1.11s-.06-.57-.09-.86c0,0,.06,0,.08,0,0,.47.08.94.1,1.41C727.77,343.69,727.78,343.9,727.79,344.1Z" fill="url(#New_Gradient_Swatch_5-2)"/><path d="M754.88,339.51a77.79,77.79,0,0,1-12.19,5.17c-2.36.78-4.74,1.43-7.16,2,2.4-.6,4.78-1.3,7.13-2.08A91.76,91.76,0,0,0,754.88,339.51Z" fill="url(#New_Gradient_Swatch_5-3)"/><path d="M773,326.59l-.54.5-.24-.82Z" fill="url(#New_Gradient_Swatch_5-4)"/><path d="M720.93,388.85c-3.62,13.15-17.95,19.8-29.61,22.74-13.15,3.33-27.14,1.78-39.79-3.23-1.3-.51-2.63-1.05-4-1.62-7.17-3.07-14.67-7.19-18.93-14.32a20.93,20.93,0,0,1-2-4.51,30.57,30.57,0,0,1-.77-12.44c.88-.07,1.75-.16,2.62-.25,10.47-1.22,20.9-4.13,30.15-9.77,10.27-6.26,20.71-17.23,23.55-30.44.12.94.26,1.87.42,2.8l.15.86c.16.88.34,1.74.53,2.6.06.28.13.56.2.84,0,.11,0,.23.08.34.06.27.14.54.21.81.17.65.35,1.3.55,1.94.07.24.15.49.23.73s.19.58.29.87c.27.76.55,1.51.85,2.24l.2.48c.13.31.27.61.41.91s.35.74.53,1.1.45.86.69,1.26.31.54.47.8l.09.16c.2.32.41.63.62.94,4.07,5.87,10.27,9.47,16.55,12,1.82.74,3.65,1.39,5.44,2a91.74,91.74,0,0,0,10.18,2.73,93.63,93.63,0,0,1,.92,10A24.94,24.94,0,0,1,720.93,388.85Z" fill="url(#linear-gradient-8)"/><g style="mix-blend-mode:soft-light"><path d="M668.51,250.47a9.16,9.16,0,0,1-1.74-.17,6.64,6.64,0,0,1-3.69-2.13l.19-.17.27-.22-.25-.25-.36-.4c-.31-.35-.6-.68-.87-1a1.91,1.91,0,0,1-.06-.33,6.64,6.64,0,0,0,3.09,1.35,7.7,7.7,0,0,0,1.17.1h.11a10,10,0,0,0,7.94-4.49c2.47-3.67,3.36-8.86,2.63-15.41a9.1,9.1,0,0,0-1.72-5.1c-1.26-1.44-3.11-1.83-5.05-2.12l-1.11-.17-8.69-1.33a22.76,22.76,0,0,1-2.56-.52c2.29-2.45,5.91-3.79,10.26-3.79a21.83,21.83,0,0,1,8.1,1.57l.42.18.38.18.27.15a4.23,4.23,0,0,1,.42.25l.41.26a8,8,0,0,1,1.47,1.28l.1.1.35.42c.12.15.22.29.32.44l.32.49c.09.16.18.3.25.44s.16.31.23.46.16.36.22.51.13.33.19.47a12.23,12.23,0,0,1,.41,1.45,3.38,3.38,0,0,1,.09.41c0,.15.05.29.08.42l0,.33c0,.13,0,.23,0,.32s0,.4.07.61,0,.68.06,1c0,.16,0,.27,0,.38,0,.61,0,1.22,0,1.82l0,.51,0,.46c0,.24,0,.41-.06.58,0,.39-.09.79-.15,1.18s-.11.75-.18,1.14c-.16.88-.34,1.73-.53,2.52,0,.21-.1.4-.15.6-.14.55-.29,1.08-.45,1.61-.05.19-.1.37-.17.56l0,.1c-.08.29-.17.57-.26.85l-.24.72c-.21.63-.43,1.25-.66,1.84l-.34.9-.31.77-.52,1.22c-.09.2-.17.4-.26.58a15.05,15.05,0,0,1-1.8,3l0,0a16.59,16.59,0,0,1-1.75,1.25A11.31,11.31,0,0,1,668.51,250.47Z"/><path d="M668.07,214.6h0a21.59,21.59,0,0,1,8,1.55,3.65,3.65,0,0,1,.41.18l.38.18.27.14.39.23.43.28a8,8,0,0,1,1.37,1.2l.06.06h0l0,0,0,0a4.62,4.62,0,0,1,.34.41l.31.41c.09.14.18.27.28.44l0,.06.23.41c.08.14.15.29.22.43l0,.09c.07.15.13.3.2.46l.15.41a10.28,10.28,0,0,1,.41,1.44,3.33,3.33,0,0,1,.08.39c0,.13.06.26.08.39l.05.36a2.43,2.43,0,0,1,0,.3c0,.19,0,.38.07.59s0,.59.06,1c0,.12,0,.24,0,.38,0,.58,0,1.18,0,1.79l0,.49,0,.23,0,.22c0,.2,0,.39-.06.59,0,.38-.09.78-.15,1.17s-.11.74-.18,1.12c-.16.88-.34,1.73-.53,2.51,0,.2-.09.39-.15.6-.14.54-.28,1.07-.44,1.6,0,.18-.1.36-.16.55v0h0v0c-.08.28-.17.56-.26.85l-.05.16-.18.55c-.19.56-.4,1.14-.66,1.83l-.15.39-.12.32-.27.68-.09.22-.23.56-.19.43-.11.26c-.09.2-.17.4-.26.59a14.67,14.67,0,0,1-1.77,3h0a14.5,14.5,0,0,1-1.69,1.2,11,11,0,0,1-5.66,1.72,9.38,9.38,0,0,1-1.68-.16,6.52,6.52,0,0,1-3.29-1.8l.47-.39-.48-.5c-.14-.13-.26-.27-.39-.41l0-.06a7.13,7.13,0,0,0,1.95.6,7.28,7.28,0,0,0,1.22.11h.11a10.38,10.38,0,0,0,8.21-4.64c2.51-3.73,3.41-9,2.68-15.63a9.42,9.42,0,0,0-1.79-5.27c-1.45-1.65-3.65-2-5.25-2.23l-1.19-.18-8.62-1.32c-.76-.12-1.41-.24-2-.37,2.24-2.14,5.62-3.3,9.64-3.3m0-.65c-4.21,0-8.3,1.28-10.83,4.28a19.51,19.51,0,0,0,3.08.68l9.8,1.5c1.74.26,3.63.6,4.86,2a8.88,8.88,0,0,1,1.64,4.91c.58,5.25.26,11-2.57,15.2a9.72,9.72,0,0,1-7.69,4.35h-.1a7,7,0,0,1-1.12-.09,6.3,6.3,0,0,1-3.48-1.77,4.4,4.4,0,0,0,.1,1.21q.43.56.9,1.08c.14.15.26.29.4.43l-.41.39a7,7,0,0,0,4.05,2.48,9.32,9.32,0,0,0,1.81.17,11.55,11.55,0,0,0,6-1.81,16.2,16.2,0,0,0,1.88-1.35h0a15.85,15.85,0,0,0,1.84-3.1c.13-.27.25-.57.38-.86s.14-.3.2-.45.21-.51.32-.78.18-.45.27-.69l.27-.71c.23-.6.45-1.22.67-1.86l.18-.55a1.09,1.09,0,0,0,0-.17c.1-.28.19-.57.27-.85a.54.54,0,0,0,0-.1c.06-.19.12-.37.17-.57.16-.53.31-1.07.45-1.61l.15-.61c.2-.84.38-1.69.53-2.54.08-.39.14-.77.19-1.15s.11-.8.15-1.19q0-.3.06-.6c0-.15,0-.3,0-.46l0-.51c0-.62,0-1.24,0-1.84,0-.13,0-.26,0-.39,0-.35,0-.69-.06-1s0-.42-.07-.61,0-.21,0-.32l-.06-.35a3.58,3.58,0,0,0-.08-.43,3.15,3.15,0,0,0-.09-.42,12.14,12.14,0,0,0-.42-1.49c-.06-.15-.11-.3-.17-.44l-.21-.48,0-.08-.24-.48c-.08-.15-.17-.29-.25-.43l-.06-.1c-.09-.15-.18-.29-.28-.43a4.43,4.43,0,0,0-.34-.45,4.94,4.94,0,0,0-.36-.44l-.1-.11a8.91,8.91,0,0,0-1.49-1.3l-.46-.3-.43-.25-.28-.15-.39-.19-.44-.19a22.08,22.08,0,0,0-8.22-1.6Z"/></g><g style="mix-blend-mode:soft-light"><path d="M662.66,247.32l.4.43-.41.39a5,5,0,0,1-.89-1.9Q662.2,246.8,662.66,247.32Z"/><path d="M661.76,246.24a5,5,0,0,0,.89,1.9l.41-.39c-.14-.14-.26-.28-.4-.43q-.46-.52-.9-1.08Z"/></g><g style="mix-blend-mode:soft-light"><path d="M692.13,260.73v0c-.92-.12-1.85-.21-2.78-.31Z"/><path d="M689.35,260.46c.93.1,1.86.19,2.78.31v0l-2.78-.27Z"/></g><g style="mix-blend-mode:soft-light"><path d="M672,269.27a23.94,23.94,0,0,1-7.83-1.44,4.8,4.8,0,0,1-.6-1.57c.53,0,1.07,0,1.61,0A30.09,30.09,0,0,0,674,265c2.55-.77,4-2.11,4.35-3.86a7.13,7.13,0,0,0-.73-3.69c-.27-.66-.54-1.29-.79-1.89-1-2.47-1.87-4.43-1.95-6.39a16.9,16.9,0,0,0,1.51-1.09l.12.15a6.53,6.53,0,0,1,.48.83s.53,1.09.6,1.22l0,.06,0,0a1.67,1.67,0,0,0,.12.23,24,24,0,0,0,6.64,7.58l.45.26.32.18a3.36,3.36,0,0,1,.74.49,1.42,1.42,0,0,1,.2.3,1.91,1.91,0,0,1,.13.36l-.09-.06-.24.27a19.44,19.44,0,0,1-5.76,6.92l-.33.23a12.61,12.61,0,0,1-3.89,1.7l-.1,0h0A16.35,16.35,0,0,1,672,269.27Z"/><path d="M676.29,248.53a7.73,7.73,0,0,1,.38.68s.05.11.08.17l.06.13,0,0c.07.16.15.32.23.48s.13.25.17.35l.07.14h0a1.65,1.65,0,0,0,.1.19,18.5,18.5,0,0,0,2.36,3.49l.06.07a17.57,17.57,0,0,0,4.38,4.17l.42.25.32.18a3.25,3.25,0,0,1,.66.43.57.57,0,0,1,.12.18l-.16.32a19.08,19.08,0,0,1-5.66,6.8l-.21.14-.11.08a12.24,12.24,0,0,1-3.8,1.66l-.2.05h0A15.53,15.53,0,0,1,672,269a23.32,23.32,0,0,1-7.61-1.39,4.48,4.48,0,0,1-.41-1l1.2,0a30.48,30.48,0,0,0,8.89-1.32c2.67-.81,4.25-2.23,4.56-4.11a7.37,7.37,0,0,0-.74-3.87l-.79-1.89a20.2,20.2,0,0,1-1.92-6.1c.38-.25.75-.51,1.12-.8m.1-.9a16.2,16.2,0,0,1-1.88,1.35c0,2.57,1.32,5,2.77,8.58a6.68,6.68,0,0,1,.71,3.52c-.34,2-2.35,3.06-4.12,3.6a29.68,29.68,0,0,1-8.7,1.3c-.67,0-1.33,0-2-.07a5.26,5.26,0,0,0,.76,2.18,24.35,24.35,0,0,0,8,1.5,16.3,16.3,0,0,0,4-.47h0a12.83,12.83,0,0,0,4-1.75l.33-.22a19.79,19.79,0,0,0,5.87-7l.07,0,.36,0a2.41,2.41,0,0,0-.23-.94,1.58,1.58,0,0,0-.26-.38,5.39,5.39,0,0,0-1.13-.73l-.44-.26a17.19,17.19,0,0,1-4.25-4.09,18,18,0,0,1-2.28-3.37,2,2,0,0,1-.13-.25.08.08,0,0,1,0,0c-.07-.13-.13-.26-.18-.37l-.27-.53-.15-.32a7.7,7.7,0,0,0-.51-.87l-.16-.21-.18-.2Z"/></g><g style="mix-blend-mode:soft-light"><path d="M692.06,261.33a9.19,9.19,0,0,1-.81,2.49Q691.58,262.85,692.06,261.33Z"/><path d="M692.06,261.33q-.48,1.51-.81,2.49a9.19,9.19,0,0,0,.81-2.49Z"/></g><g style="mix-blend-mode:soft-light"><path d="M730.73,347.15a2.34,2.34,0,0,1-1.46-.42,3.91,3.91,0,0,1-1.15-2.64l0-.61c0-.47-.07-1-.11-1.42l-.05-.49-.09.05c-.88-7-3.6-15.9-8.67-20.48l-.51-.44-1.14-.56a3.21,3.21,0,0,1,1.38-.35H719c1.81,0,3.85,1.45,5.9,4.19l.44.6c1.65,2.25,4.4,6,6.62,6,1,0,1.77-.74,2.26-2.19.67-2-.11-5.88-.74-9-.21-1.07-.4-2-.5-2.69A91.37,91.37,0,0,0,730.67,305c-2.27-8.29-6-15.07-10.72-19.6-6-5.68-14.58-8.84-24.92-9.13l-1.42,0c-2.75-.05-5.6-.09-8.16-1.18s-4.23-2.61-4.81-4.42a6.24,6.24,0,0,1-.14-3l.06-.33a19.86,19.86,0,0,0,5.75-6.85l.25,0,1.4.14c.42,0,.83.08,1.24.12h.11c.94.1,1.86.19,2.78.31h.1c23.11,2.76,39,11.23,50.14,26.66.4.55.79,1.12,1.18,1.69,2.49,3.69,4.78,7.81,7,11.79,3.52,6.33,7.17,12.87,11.7,17.9a29.6,29.6,0,0,0,9.71,7.36l.13.49c-1.79,1.66-3.72,3.28-5.73,4.82a81.75,81.75,0,0,1-11.6,7.42,91.7,91.7,0,0,1-12.17,5c-2,.67-4,1.26-5.92,1.76l-.91.25-.28.07c-1.38.29-2.44.5-3.42.67A8,8,0,0,1,730.73,347.15Z"/><path d="M686.49,260.83h.08l1.37.14c.42,0,.82.08,1.23.12h.11c.93.1,1.84.19,2.75.3h.12c23,2.75,38.88,11.18,49.91,26.52.4.56.79,1.12,1.18,1.69,2.48,3.67,4.78,7.79,7,11.77,3.54,6.34,7.19,12.9,11.75,18a29.72,29.72,0,0,0,9.68,7.38l0,.16c-1.74,1.6-3.61,3.17-5.57,4.66a80.09,80.09,0,0,1-11.54,7.39,91.68,91.68,0,0,1-12.13,5c-2,.66-4,1.25-5.92,1.76l-.87.23-.31.08h-.05c-1.3.28-2.36.48-3.33.65a7.57,7.57,0,0,1-1.25.13,2,2,0,0,1-1.27-.35,3.45,3.45,0,0,1-1-2.39V344l0-.54c0-.48-.06-.95-.11-1.43l-.09-1-.11.06c-1-7-3.7-15.68-8.72-20.22-.17-.15-.34-.3-.52-.44l-.05-.05-.07,0-.39-.19a3.33,3.33,0,0,1,.54-.07H719c1.7,0,3.64,1.4,5.63,4.07.13.17.28.37.44.6,2.18,3,4.68,6.13,6.88,6.13.8,0,1.9-.42,2.56-2.42s-.09-6-.72-9.14c-.22-1.06-.4-2-.5-2.67A92.32,92.32,0,0,0,731,304.9c-2.28-8.34-6-15.17-10.81-19.74-6-5.74-14.71-8.93-25.13-9.22l-1.43,0c-2.72,0-5.53-.09-8-1.15s-4.07-2.47-4.63-4.22a5.9,5.9,0,0,1-.13-2.83l0-.18a20.13,20.13,0,0,0,5.64-6.7m-.34-.72a19.79,19.79,0,0,1-5.87,7c0,.15-.07.31-.1.46a6.55,6.55,0,0,0,.16,3.12c.56,1.78,2.06,3.37,5,4.62s6.43,1.15,9.7,1.24c8.83.24,18,2.62,24.71,9,5.23,5,8.61,12.08,10.63,19.45a92,92,0,0,1,2.3,11.7c.39,2.77,2.12,8.9,1.25,11.52-.47,1.42-1.16,2-1.95,2-2.27,0-5.42-4.61-6.81-6.47-2.27-3.05-4.36-4.32-6.14-4.32h-.13a3.74,3.74,0,0,0-2,.7l1.62.78.5.43c5,4.55,7.79,13.62,8.62,20.75,0,0,.06,0,.08,0,0,.47.08.94.1,1.41,0,.19,0,.4,0,.6,0,0,0,0,0,0a4.14,4.14,0,0,0,1.27,2.84,2.68,2.68,0,0,0,1.66.49,7.76,7.76,0,0,0,1.36-.15c1.12-.19,2.24-.41,3.36-.65l.08,0c.4-.1.79-.2,1.19-.32,2-.51,4-1.11,5.94-1.76a91.76,91.76,0,0,0,12.22-5.06,80.31,80.31,0,0,0,11.65-7.45c2-1.55,4-3.2,5.9-5l-.24-.82a29.21,29.21,0,0,1-9.73-7.35c-7.36-8.16-12.24-20.1-18.69-29.65-.39-.58-.78-1.14-1.18-1.7-12.83-17.84-30.76-24.45-50.36-26.79h-.1c-.92-.12-1.85-.21-2.78-.31l-1.36-.13-1.41-.14-.36,0-.07,0Z"/></g><g style="mix-blend-mode:soft-light"><path d="M709.6,349.43c.26-.63.5-1.27.74-1.91a53.6,53.6,0,0,0,3.15-17.22c.07-4.51,1.36-8.21,3.38-9.75l1.18.57a42.41,42.41,0,0,0-1.51,10c0,.79-.11,1.57-.17,2.32a68.41,68.41,0,0,0,.22,12.94c-1.43.58-2.88,1.15-4.33,1.69a11.68,11.68,0,0,0-1.28.59l-.38.2C710.27,349.05,709.94,349.24,709.6,349.43Z"/><path d="M716.91,320.93l.75.36a43.81,43.81,0,0,0-1.44,9.83c-.05.79-.11,1.56-.17,2.32a68,68,0,0,0,.2,12.75c-1.45.59-2.8,1.11-4.1,1.6a11.24,11.24,0,0,0-1.3.59l-.4.21-.22.12c.15-.38.28-.73.41-1.09a53.63,53.63,0,0,0,3.17-17.32c.07-4.22,1.28-7.83,3.1-9.37m-.08-.76c-2.21,1.55-3.59,5.49-3.67,10.12A53.08,53.08,0,0,1,710,347.41c-.34.94-.7,1.86-1.08,2.78.62-.36,1.22-.72,1.81-1l.37-.2a12.15,12.15,0,0,1,1.24-.57c1.53-.57,3-1.17,4.57-1.78a68.39,68.39,0,0,1-.25-13.12c.34-4.09.44-8.79,1.76-12.54l-1.62-.78Z"/></g><g style="mix-blend-mode:soft-light"><path d="M676.89,413a68.28,68.28,0,0,1-25.24-5c-1.22-.48-2.47-1-3.72-1.51a9.71,9.71,0,0,1,1.4-3.35c2.46-3.73,6.66-4.24,10.43-4.24,1.07,0,2.13.05,3.15.09l1,0c1.31.05,2.65.08,4,.08a108.3,108.3,0,0,0,19.74-1.83c3.46-.65,7.38-1.59,10.1-4.6a13.66,13.66,0,0,0,2.51-4.21,42.34,42.34,0,0,0,1.93-7.38l.05-.23c.94-4.64,2-9.28,3.24-13.8,1.56.62,3.23,1.22,5.12,1.84a92.89,92.89,0,0,0,10,2.69,90.06,90.06,0,0,1,.88,9.78,24.63,24.63,0,0,1-.84,7.34c-3.89,14.12-20.08,20.17-29.38,22.51A58.75,58.75,0,0,1,676.89,413Z"/><path d="M705.69,367.55c1.47.58,3,1.14,4.8,1.72a96,96,0,0,0,9.8,2.65,89.79,89.79,0,0,1,.85,9.52,24.29,24.29,0,0,1-.83,7.24c-3.84,14-19.91,20-29.15,22.29a58.16,58.16,0,0,1-14.27,1.74,67.84,67.84,0,0,1-25.12-4.95c-1.26-.49-2.4-1-3.47-1.41a9.8,9.8,0,0,1,1.29-3c2.39-3.61,6.48-4.09,10.18-4.09,1.06,0,2.11,0,3.12.08l1,0c1.32,0,2.66.08,4,.08a109,109,0,0,0,19.8-1.83c3.51-.66,7.49-1.62,10.27-4.7a13.86,13.86,0,0,0,2.58-4.31,43.52,43.52,0,0,0,2-7.44l0-.22c.91-4.53,2-9,3.14-13.44m-.44-.87c-1.26,4.68-2.37,9.42-3.34,14.18a44,44,0,0,1-2,7.55,13.44,13.44,0,0,1-2.45,4.12c-2.59,2.86-6.34,3.83-9.92,4.49a107.56,107.56,0,0,1-19.68,1.82c-1.32,0-2.64,0-4-.07s-2.73-.13-4.17-.13c-4,0-8.24.63-10.71,4.38a10.41,10.41,0,0,0-1.5,3.72c1.34.57,2.67,1.11,4,1.62a69.1,69.1,0,0,0,25.36,5,58.72,58.72,0,0,0,14.43-1.77c11.66-2.94,26-9.59,29.61-22.74a24.94,24.94,0,0,0,.86-7.43,93.63,93.63,0,0,0-.92-10,91.74,91.74,0,0,1-10.18-2.73c-1.79-.58-3.62-1.23-5.44-2Z"/></g><g style="mix-blend-mode:soft-light"><path d="M716.53,506.64a26.69,26.69,0,0,1-7-.91,20.28,20.28,0,0,1-13.25-10.89,27,27,0,0,1-2.38-7.78l-.09-.6-.47,0a44.5,44.5,0,0,1-.24-5.64,42.87,42.87,0,0,1,11.41-28.36c4.12-4.32,9.14-7.5,14-10.58,2.58-1.64,5.25-3.34,7.77-5.19a75.07,75.07,0,0,0,23.57-29.46A19.15,19.15,0,0,0,752,399c-.07-2.8-1.54-6.05-4.22-6.87a4.8,4.8,0,0,0-1.36-.19c-2.18,0-4.24,1.4-6.14,2.93-3.23,2.58-6.47,5.35-9.61,8-11.78,10.05-24,20.45-38.41,23.85a16.64,16.64,0,0,1-3.82.48c-3,0-5.09-1-6.28-3s-1.29-4.63-.42-8.07a33.67,33.67,0,0,1,1.33-4.1,36.65,36.65,0,0,1,3.41-6.43c14-2.9,26.64-11,40.49-20.58a86.85,86.85,0,0,1,35.16-14,45.1,45.1,0,0,1,7-.55c6.82,0,12.72,1.63,17.55,4.85a26.22,26.22,0,0,1,7.64,7.9c3.94,6.26,6.09,14.42,6.22,23.59a81.54,81.54,0,0,1-1.1,13.89C793.7,457,768.48,489,735.15,502.32l-2,.77C726.67,505.51,721.38,506.64,716.53,506.64Z"/><path d="M769.08,370.2v.64c6.75,0,12.6,1.61,17.37,4.8a25.82,25.82,0,0,1,7.55,7.8c3.91,6.22,6,14.32,6.17,23.43a81.9,81.9,0,0,1-1.09,13.83,106.38,106.38,0,0,1-22.29,50.14A102.87,102.87,0,0,1,735,502l-2,.77c-6.46,2.4-11.71,3.52-16.53,3.52a26.42,26.42,0,0,1-6.93-.89,19.68,19.68,0,0,1-13.05-10.73A26.83,26.83,0,0,1,694.2,487l0-.19,0-.16-.08-.51-.46,0a41.44,41.44,0,0,1-.2-5.33,42.53,42.53,0,0,1,11.31-28.15c4.09-4.28,9.09-7.46,13.93-10.53,2.59-1.64,5.26-3.34,7.79-5.2a75.4,75.4,0,0,0,23.67-29.59A19.35,19.35,0,0,0,752.3,399c-.07-2.91-1.62-6.3-4.45-7.16a5.1,5.1,0,0,0-1.45-.22c-2.28,0-4.39,1.45-6.34,3-3.23,2.59-6.48,5.36-9.62,8-11.75,10-23.9,20.41-38.27,23.79a16.65,16.65,0,0,1-3.75.47c-2.85,0-4.87-.95-6-2.82s-1.24-4.47-.39-7.82a32.5,32.5,0,0,1,1.32-4.06,37.37,37.37,0,0,1,3.3-6.26c14-2.94,26.64-11.07,40.48-20.6a86.58,86.58,0,0,1,35-13.93,45.73,45.73,0,0,1,6.92-.55v-.64m0,0a44.51,44.51,0,0,0-7,.56,87,87,0,0,0-35.29,14c-13.63,9.38-26.26,17.64-40.51,20.56a37.79,37.79,0,0,0-3.51,6.59,32.26,32.26,0,0,0-1.34,4.14c-.7,2.76-1,5.94.46,8.31s3.93,3.14,6.55,3.14a17.34,17.34,0,0,0,3.89-.49c18.4-4.33,32.84-19.7,48.15-32,1.78-1.42,3.84-2.86,5.94-2.86a4.57,4.57,0,0,1,1.26.18c2.45.75,3.93,3.73,4,6.56a18.77,18.77,0,0,1-2.13,8.09,75.16,75.16,0,0,1-23.47,29.33c-7.25,5.33-15.46,9.17-21.81,15.81a43.45,43.45,0,0,0-11.49,28.57,45.11,45.11,0,0,0,.26,6l.49,0,.06.35A27.49,27.49,0,0,0,696,495,20.46,20.46,0,0,0,709.43,506a26.72,26.72,0,0,0,7.1.92c5.64,0,11.35-1.56,16.75-3.57l2-.77c32.13-12.8,58.44-43.6,64.44-81.82a82.25,82.25,0,0,0,1.1-13.94c-.11-8.38-2-16.91-6.27-23.76a26.24,26.24,0,0,0-7.74-8,31.63,31.63,0,0,0-17.72-4.9Z"/></g><g style="mix-blend-mode:soft-light"><path d="M735.61,502.14a25.25,25.25,0,0,1,3.8-11.47c3.61-6.13,8.53-11.13,13.3-16,4.11-4.17,8.36-8.48,11.78-13.52,9.15-13.52,14.65-25.51,17.31-37.73,2.92-13.42,2.59-29.9-7.07-35.91-3.35-2.09-7.3-2.38-11.06-2.51l-.73,0a35.78,35.78,0,0,1-7.6-.78,14.47,14.47,0,0,1-2.6-.91c-4.86-2.24-6.73-5.1-5.55-8.49a85,85,0,0,1,14.92-3.77,45.1,45.1,0,0,1,7-.55c6.82,0,12.72,1.63,17.55,4.85a26.22,26.22,0,0,1,7.64,7.9c3.94,6.26,6.09,14.42,6.22,23.59a81.54,81.54,0,0,1-1.1,13.89C793.73,456.86,768.71,488.75,735.61,502.14Z"/><path d="M769.08,370.2v.64c6.75,0,12.6,1.61,17.37,4.8a25.82,25.82,0,0,1,7.55,7.8c3.91,6.22,6,14.32,6.17,23.43a81.9,81.9,0,0,1-1.09,13.83,106.38,106.38,0,0,1-22.29,50.14A102.94,102.94,0,0,1,736,501.64a25.44,25.44,0,0,1,3.73-10.8c3.58-6.11,8.5-11.09,13.25-15.9,4.12-4.18,8.38-8.5,11.82-13.57,9.17-13.56,14.69-25.58,17.36-37.84,2.94-13.53,2.59-30.16-7.21-36.25-3.42-2.13-7.42-2.43-11.23-2.56l-.74,0a35,35,0,0,1-7.52-.78,14.59,14.59,0,0,1-2.54-.88c-4.62-2.13-6.44-4.8-5.43-8a85.19,85.19,0,0,1,14.71-3.7,45.73,45.73,0,0,1,6.92-.55v-.64m0,0a44.51,44.51,0,0,0-7,.56,85.3,85.3,0,0,0-15.12,3.83c-1.17,3.15,0,6.42,5.67,9a15.17,15.17,0,0,0,2.65.93,40.08,40.08,0,0,0,8.4.82c3.75.12,7.63.41,10.9,2.45,10.4,6.47,9.31,24.61,6.93,35.57-3,14-9.56,26.23-17.27,37.62-7.37,10.88-18.36,18-25.08,29.5a25.14,25.14,0,0,0-3.87,12.11c32.13-12.8,58.44-43.6,64.44-81.82a82.25,82.25,0,0,0,1.1-13.94c-.11-8.38-2-16.91-6.27-23.76a26.24,26.24,0,0,0-7.74-8,31.63,31.63,0,0,0-17.72-4.9Z"/></g><g style="mix-blend-mode:soft-light"><path d="M751.36,368.93a21.68,21.68,0,0,1-6.06-3.73A25,25,0,0,1,737,346.58c1.88-.49,3.8-1.07,5.72-1.71A91.19,91.19,0,0,0,755,339.8l.5-.24.1-.05a74.57,74.57,0,0,0,10.81-6.72c.82,3.74,2,10.32,1.58,15.63a20.85,20.85,0,0,1-6,13.38A45.86,45.86,0,0,1,751.36,368.93Z"/><path d="M766.22,333.35a56.53,56.53,0,0,1,1.47,15,20.47,20.47,0,0,1-5.86,13.16,45.06,45.06,0,0,1-10.48,7,21.54,21.54,0,0,1-5.84-3.62,24.71,24.71,0,0,1-8.14-18.13c1.81-.48,3.65-1,5.49-1.65a91.71,91.71,0,0,0,12.28-5.08l.53-.26.09,0a74,74,0,0,0,10.46-6.44m.41-1.11h0a72.22,72.22,0,0,1-11.16,7l-.59.29a91.76,91.76,0,0,1-12.22,5.06c-2,.65-3.95,1.25-5.94,1.76v0a25.34,25.34,0,0,0,8.37,19.08,22.05,22.05,0,0,0,6.29,3.83,46,46,0,0,0,10.9-7.25,21.1,21.1,0,0,0,6.05-13.58c.38-4.71-.5-10.91-1.7-16.21Z"/></g></g><g id="Layer_8" data-name="Layer 8"><path d="M681.51,323.65a85.51,85.51,0,0,0,.67,11.36c-2.84,13.21-13.28,24.18-23.55,30.44-9.25,5.64-19.68,8.55-30.15,9.77-.87.09-1.74.18-2.62.25a37.27,37.27,0,0,1-12.06-.68,21.06,21.06,0,0,1-12.45-8.25c-2.8-4.09-4-9.35-4.14-14.5a74.11,74.11,0,0,1,1.23-13.78l.6-4.48q2.19,2.09,4.48,4,1.13.93,2.31,1.8h0A34.6,34.6,0,0,0,617,345.24a14.14,14.14,0,0,0,4.29.52L619,349.82h0c3.94-.73,7.88-1.29,11.86-1.65,1.83-.18,3.65-.3,5.49-.39,6.75-.28,12.82,2,19.45,3a11.05,11.05,0,0,0,5.21-.26c3.83-1.37,6-5.86,7.39-10.07,2.37-7,6-13.1,12-16.56.62-.36,1.47-.66,2-.1a2.09,2.09,0,0,1,.39,1.22c.07.69.11,1.38.13,2.06A6.87,6.87,0,0,1,681.51,323.65Z" fill="url(#New_Gradient_Swatch_2-4)"/><path d="M682.92,327a32.92,32.92,0,0,1-.74,8,85.51,85.51,0,0,1-.67-11.36A6.87,6.87,0,0,0,682.92,327Z" fill="url(#New_Gradient_Swatch_2-5)"/></g><g id="Layer_7" data-name="Layer 7"><path d="M768.33,348.45A21.1,21.1,0,0,1,762.28,362a46,46,0,0,1-10.9,7.25l-.22.12a31.68,31.68,0,0,1-9.06,2.89c-6.83,1.16-14.29.53-21.23-.91a91.74,91.74,0,0,1-10.18-2.73c-7.93-2.59-16.74-6.38-22-14-.21-.31-.42-.62-.62-.94l-.09-.16c-.16-.26-.32-.52-.47-.8s-.47-.83-.69-1.26-.36-.73-.53-1.1-.28-.6-.41-.91l-.2-.48c-.3-.73-.58-1.48-.85-2.24-.1-.29-.2-.58-.29-.87s-.16-.49-.23-.73c-.2-.64-.38-1.29-.55-1.94l-.21-.81c0-.11,0-.23-.08-.34-.07-.28-.14-.56-.2-.84-.19-.86-.37-1.72-.53-2.6l-.15-.86c-.16-.93-.3-1.86-.42-2.8a85.51,85.51,0,0,1-.67-11.36,6.87,6.87,0,0,0,1.41,3.39l.05.07c.09.13.19.28.29.41a29.8,29.8,0,0,0,2.2,2.61c.2.24.41.45.62.67,1.13,1.2,2.2,2.25,2.82,3A67.46,67.46,0,0,1,697,345.09c1.45,2.7,2.17,6.76,5.47,7.26,2.12.32,4.36-.93,6.49-2.16.62-.36,1.22-.72,1.81-1l.37-.2a12.15,12.15,0,0,1,1.24-.57c1.53-.57,3-1.17,4.57-1.78,3.56-1.43,7.1-2.95,10.63-4.48,0,.29.07.58.09.86s.08.75.13,1.11c0,0,0,0,0,0,.11,1.43.38,3,1.52,3.48a3.12,3.12,0,0,0,1.89,0c1.42-.3,2.83-.62,4.24-1l.08,0,1.19-.28q3-.72,6-1.69a77.79,77.79,0,0,0,12.19-5.17l.59-.29a72.22,72.22,0,0,0,11.16-7h0C767.83,337.54,768.71,343.74,768.33,348.45Z" fill="url(#New_Gradient_Swatch_2-6)"/><path d="M727.75,343.5c0,.19,0,.4,0,.6,0-.36-.09-.75-.13-1.11s-.06-.57-.09-.86c0,0,.06,0,.08,0C727.69,342.56,727.73,343,727.75,343.5Z" fill="url(#New_Gradient_Swatch_2-7)"/><path d="M754.88,339.51a77.79,77.79,0,0,1-12.19,5.17c-2.36.78-4.74,1.43-7.16,2,2.4-.6,4.78-1.3,7.13-2.08A91.76,91.76,0,0,0,754.88,339.51Z" fill="url(#New_Gradient_Swatch_2-8)"/><g style="mix-blend-mode:soft-light"><path d="M677,199.68l-.66-.2-.51-.15-.26-.08-.68-.18-.93-.22c-.78-.17-1.57-.32-2.4-.44l-1.06-.13a10.1,10.1,0,0,1-.56-3.51,28.18,28.18,0,0,1,.63-4.93c.11-.59.23-1.19.32-1.78a37.6,37.6,0,0,0,.51-6.95,13.73,13.73,0,0,1,7.36,5.09c2.16,2.9,3.33,7.52,1.4,10.74l0,0,0,.06A7,7,0,0,1,677,199.68Z"/><path d="M671.72,181.54a13.5,13.5,0,0,1,6.78,4.85c2.1,2.82,3.25,7.29,1.39,10.37l0,.05,0,.05a6.72,6.72,0,0,1-2.84,2.48l-.54-.17-.53-.16-.25-.07-.72-.19-.11,0-.8-.18c-.79-.18-1.58-.33-2.44-.45l-.81-.1h0a9.7,9.7,0,0,1-.47-3.21,25.67,25.67,0,0,1,.62-4.86c.11-.6.22-1.2.32-1.8a39,39,0,0,0,.51-6.57m-.65-.85a39,39,0,0,1-.49,7.31,43.45,43.45,0,0,0-1,6.77,10.39,10.39,0,0,0,.65,3.81c.12.28.25.56.39.82,0-.1,0-.22,0-.32s0-.3,0-.45l.81.1c.8.11,1.59.26,2.38.43l.79.19.8.21c.26.08.51.14.77.23l.77.24a7.43,7.43,0,0,0,3.35-2.84.2.2,0,0,0,.06-.09c2-3.32.88-8-1.41-11.09a14.14,14.14,0,0,0-7.95-5.32Z"/></g><path d="M646.72,506.72l1-.07-3.54.6" fill="none"/></g><g id="Layer_9" data-name="Layer 9"><path d="M632.19,332c-.31-.13-.63-.26-.94-.41a73.92,73.92,0,0,1-23.37-16.54c-.73-.75-6.12-6.56-10-10.52a66.2,66.2,0,0,1-6.46,5.86l.7.68c6.87,6.6,13,14.05,20.67,19.52,2.72,1.93,11,7,17.41,8.14.45.08.9.14,1.33.18Z" fill="url(#New_Gradient_Swatch_4-2)"/></g><g id="Layer_9_copy" data-name="Layer 9 copy"><path d="M758.46,315.73c-4.45,2.11-9.52,4.42-10.29,4.79a75.26,75.26,0,0,0-21.63,15.66,42.76,42.76,0,0,0-3.28-7.31,69.17,69.17,0,0,1,10.25-9.64c6.41-4.76,13.5-7.79,20.46-11.22,1,1.94,2,3.85,3.18,5.7C757.57,314.39,758,315.07,758.46,315.73Z" fill="url(#New_Gradient_Swatch_4-3)"/></g><g id="Layer_13" data-name="Layer 13"><path d="M692.13,260.77c0,.18,0,.37-.07.56q-.48,1.51-.81,2.49s0,0,0,0a12,12,0,0,1-.64,1.53,26.33,26.33,0,0,1-16.41,12.27,21.83,21.83,0,0,1-13.65-1.74,39.76,39.76,0,0,1-5.83-3.39,32.8,32.8,0,0,1-9.35-9.64l-.17-.25c-.26-.41-.52-.83-.76-1.25,2.85-.29,5.67-.68,6.74-1.53l.24-.33h.24a11.05,11.05,0,0,1,1.23.52,15.56,15.56,0,0,0,1.09,1.6,15,15,0,0,0,3.82,3.47h0c.23.14.46.29.71.43l.48.28s0,0,0,0c.49.27,1,.54,1.51.8a32.77,32.77,0,0,0,3.42,1.44,21.12,21.12,0,0,0,12,1h0a12.83,12.83,0,0,0,4-1.75,19.4,19.4,0,0,0,6.2-7.26l.07,0,.36,0,1.41.14,1.36.13C690.28,260.56,691.21,260.65,692.13,260.77Z" fill="url(#New_Gradient_Swatch_4-4)"/><path d="M692.24,260.74a.06.06,0,0,0,0,0c-.06.19-.12.37-.17.55,0-.19.05-.38.07-.56-.92-.12-1.85-.21-2.78-.31Z" fill="url(#New_Gradient_Swatch_4-5)"/><ellipse cx="466.97" cy="295.4" rx="43.45" ry="48.77" fill="url(#linear-gradient-9)"/></g></g></svg>